<svg xmlns="http://www.w3.org/2000/svg" width="230" height="182" viewBox="0 0 230 182" fill="none">
  <path fill-rule="evenodd" clip-rule="evenodd" d="M141.66 65.8029C140.571 66.7564 141.648 64.5543 140.512 65.718C140.712 67.1605 139.535 69.4369 140.413 70.4668C140.612 69.1246 141.136 69.2047 141.879 68.0124C140.608 69.5763 140.444 66.7839 141.66 65.8029ZM114.297 56.3967C113.835 56.2503 113.861 57.2377 113.424 57.1863C110.396 55.2604 108.052 51.3314 103.515 51.2344C102.106 47.9259 98.5912 47.1723 96.1083 45.5805C94.3114 44.4294 93.1565 41.6965 89.8078 43.421C93.0692 46.1116 97.2163 47.7859 99.4567 50.5759C103.632 51.8131 107.585 55.5157 112.625 58.7147C112.701 59.19 111.369 60.5202 111.697 60.8427C112.511 59.9599 113.226 59.5244 113.846 59.5355C120.328 64.7482 126.076 68.5724 130.29 71.9343C130.355 72.4398 128.875 75.1913 130.306 74.007C130.223 73.7513 130.319 72.1537 130.902 72.3443C132.862 75.1096 141.752 78.5488 143.214 83.3488C143.055 83.0968 143.267 82.6204 143.474 82.1463C146.744 84.8515 151.057 85.3396 152.511 88.8912C150.628 84.8036 148.718 79.8675 143.867 80.3463C144.2 79.8821 144.535 79.4183 144.868 78.9571C142.322 80.5316 142.896 75.6731 141.872 75.5688C136.742 78.3302 138.345 72.5066 135.147 71.0645C132.803 73.2946 131.241 70.3197 130.944 68.9323C125.761 65.8323 119.324 61.8014 114.297 56.3967ZM155.332 86.6558C155.733 87.7289 154.513 87.907 153.792 88.3737C153.522 89.738 154.767 90.1364 156.033 89.8767C154.332 89.9446 156.919 86.8469 156.016 87.8035C155.674 87.5854 154.974 89.0124 154.605 88.9225C155.172 88.1033 155.69 87.5116 156.147 87.203C155.223 87.5296 156.242 85.495 155.332 86.6558ZM157.834 86.9591C155.779 91.9142 160.941 91.2675 161.474 94.9028C162.275 94.0811 162.909 94.0291 163.494 94.1946C164.226 95.0499 165.584 97.7161 167.496 96.1881C166.734 95.7832 167.444 94.4842 167.073 93.8433C165.867 95.0508 163.91 94.1335 163.962 93.1291C165.346 91.341 164.343 93.8955 165.443 92.7498C163.838 91.9573 159.078 91.411 157.834 86.9591ZM167.57 96.9269C168.925 97.1901 168.828 100.358 170.96 98.5099C169.629 98.6333 168.954 95.6882 167.57 96.9269ZM148.641 86.2973C148.068 85.9636 146.896 86.7023 146.692 87.7427C147.128 88.2426 147.824 87.5501 148.641 86.2973ZM153.674 91.0513C153.142 91.7184 152.513 92.8108 152.134 92.7687C151.546 91.8245 149.736 90.3152 148.543 91.0442C154.425 97.0074 161.697 101.671 165.204 105.655C164.973 105.651 164.793 105.398 164.462 105.846C164.868 106.843 165.825 105.309 166.484 105.137C167.754 108.149 171.544 109.178 172.768 111.53C172.562 111.984 172.874 112.121 173.092 112.316C173.028 112.03 172.897 111.781 172.768 111.53C172.834 111.386 172.952 111.207 173.151 110.981C174.942 112.896 176.412 111.539 176.149 114.367C177.382 112.619 177.675 115.214 178.909 113.469C172.613 107.008 161 100.549 154.376 94.2697C154.911 92.7783 155.92 93.975 155.583 93.0135C154.519 93.9939 155.496 91.5503 154.23 92.7956C153.944 95.7071 153.326 92.8006 153.674 91.0513ZM203.748 128.054C204.742 126.417 203.396 126.682 202.525 127.234C203.091 127.847 202.461 129.183 203.69 129.393C204.345 128.648 204.244 128 204.692 128.001C205.64 128.12 203.594 130.057 204.709 130.074C205.282 129.225 205.693 129.124 205.99 129.554C207.724 126.913 205.634 126.001 203.748 128.054ZM210.675 132.697C210.687 131.085 208.833 129.579 207.473 129.176C206.302 134.055 211.318 131.214 210.559 135.37C211.063 134.845 211.506 134.599 211.839 134.855C213.687 132.218 211.876 132.246 210.675 132.697ZM200.796 130.892C201.822 130.788 200.767 131.952 200.945 132.363C201.61 131.445 201.924 132.147 202.687 130.781C202.095 130.028 202.182 129.575 200.796 130.892ZM182.929 117.536C187.547 120.743 190.583 125.376 196.17 126.41C192.312 123.448 188.766 119.79 182.929 117.536ZM178.747 109.92C178.853 110.03 178.939 110.152 178.617 110.521C178.287 110.258 177.839 110.527 177.338 111.037C177.835 111.968 178.779 110.852 179.562 110.467C178.864 110.655 179.882 108.623 178.747 109.92ZM180.63 117.37C181.692 116.066 182.091 117.802 183.058 116.934C182.742 116.52 183.186 115.643 183.247 114.997C180.408 116.33 181.712 112.892 178.781 114.066C178.546 116.141 182.82 115.384 180.63 117.37ZM155.328 103.845C155.539 104.269 154.855 104.415 154.325 105.237C155.971 104.55 153.692 107.094 155.214 106.52C154.976 105.977 155.303 105.508 156.014 104.992C155.822 104.724 155.985 102.978 155.328 103.845ZM191.782 135.85C191.133 136.329 190.347 137.444 189.835 137.294C191.404 134.968 188.724 134.703 188.073 136.803C189.47 135.541 190.266 140.113 193.37 140.353C194.544 136.891 192.661 137.383 191.782 135.85ZM201.926 146.09C202.727 146.272 202.745 149.203 203.962 147.455C203.989 146.769 203.5 144.125 201.926 146.09ZM206.686 149.967C206.443 150.98 207.43 151.095 208.241 150.324C207.968 149.658 207.733 149.306 206.686 149.967ZM208.112 150.921C207.846 152.22 209.231 153.876 210.629 153.299C209.684 152.22 209.608 150.402 208.112 150.921ZM86.9338 73.8145C87.7748 75.4817 88.6083 76.6091 90.1935 75.999C90.1291 74.815 88.1081 73.4584 86.9338 73.8145ZM90.8048 76.4083C91.1124 76.7666 91.2916 78.51 92.4335 77.5013C92.5741 76.8721 91.6704 75.5663 90.8048 76.4083ZM73.1539 65.2657C72.374 63.7731 70.294 63.6133 68.9487 63.1326C69.895 64.2216 70.7743 65.2791 73.1539 65.2657ZM80.4879 70.1814C82.4718 71.3485 84.3859 73.6337 86.8597 73.0781C83.8912 71.8363 83.3796 69.6692 80.4879 70.1814ZM172.387 126.288C172.091 125.924 171.631 123.55 170.221 125.52C171.469 125.731 170.907 127.595 172.387 126.288ZM187.332 136.993C188.447 135.61 187.711 134.448 186.648 135.848C186.338 137.147 187.6 135.881 187.332 136.993ZM202.392 145.023C199.463 144.983 199.044 140.695 195.408 141.719C197.934 142.888 198.397 146.428 202.392 145.023ZM181.352 132.295C183.457 133.058 184.069 136.893 187.114 134.781C184.821 134.406 184.538 129.652 181.352 132.295ZM130.69 106.587C130.894 107.938 132.441 108.475 132.001 110.217C130.801 108.661 128.035 105.808 126.167 106.994C129.48 110.229 133.557 111.389 135.961 115.621C135.748 116.012 135.308 116.54 135.498 116.685C135.942 116.068 136.389 115.448 136.834 114.829C136.944 115.946 138.664 117.466 140.019 116.28C139.54 113.077 136.795 111.143 134.838 110.054C134.743 110.348 135.334 111.403 134.577 111.256C133.858 109.519 132.365 106.875 130.69 106.587ZM144.559 117.947C143.409 118.495 144.232 116.677 143.003 117.589C143.215 117.925 142.423 120.158 143.354 119.198C143.266 118.992 143.395 118.653 143.816 118.137C144.078 118.365 144.67 118.557 144.559 117.947ZM144.966 118.219C144.521 118.837 144.076 119.455 143.629 120.073C146.659 123.961 149.53 124.594 153.348 127.967C152.553 121.545 146.795 123.665 144.966 118.219ZM154.164 128.512C154.45 129.888 158.929 130.108 156.96 131.759C156.751 132.386 159.71 131.438 159.593 131.462C158.283 130.184 156.015 127.102 154.164 128.512ZM160.814 132.283C160.363 132.924 159.985 133.234 159.608 133.537C159.791 134.117 159.326 135.719 160.627 134.218C160.311 133.804 160.754 132.926 160.814 132.283ZM124.234 110.511C124.775 112.18 127.161 112.726 126.232 115.287C125.899 115.025 125.45 115.296 124.953 115.803C126.899 114.728 124.014 118.091 125.636 116.95C126.708 115.598 128.939 118.987 130.1 117.882C129.779 114.196 127.718 110.527 124.234 110.511ZM115.84 108.323C115.864 112.669 117.898 108.199 119.988 111.791C120.608 109.398 116.784 108.791 120.016 106.305C117.216 108.236 116.269 101.678 113.571 102.672C113.336 103.855 114.447 104.22 113.324 105.945C113.494 105.264 112.506 105.149 111.766 105.593C113.444 106.22 113.769 109.328 115.84 108.323ZM111.897 104.992C111.277 104.983 110.973 103.521 110.137 104.499C110.701 105.214 110.607 106.149 111.897 104.992ZM27.1735 59.8877C23.9348 58.6693 24.4406 57.1413 21.2095 57.2631C22.0232 58.7569 24.4171 62.0845 27.1735 59.8877ZM10.7625 51.6347C11.3628 52.2251 12.6729 52.3818 12.4662 53.4645C13.1891 51.4608 12.2255 50.6044 10.7625 51.6347ZM103.804 115.381C106.013 116.35 105.766 119.461 108.008 117.513C106.677 118.086 105.707 113.611 103.804 115.381ZM121.892 130.945C121.558 131.409 121.222 131.874 120.889 132.336C120.899 133.123 122.655 133.229 121.922 135.095C124.207 132.337 124.361 136.882 126.463 136.759C126.928 133.156 123.107 133.53 121.892 130.945ZM127.945 136.381C127.339 140.531 131.976 138.935 131.105 143.314C127.52 141.372 125.707 137.337 120.847 135.748C120.898 136.412 121.749 136.589 121.401 137.494C118.987 137.453 119.204 135.489 119.275 133.318C118.515 134.66 118.208 133.933 117.661 134.3C117.858 132.849 117.998 130.608 116.089 131.869C120.113 141.564 133.859 150.457 140.378 154.342C137.146 150.031 133.169 149.828 131.326 145.522C134.172 144.265 133.22 150.057 137.087 148.009C135.589 147.733 134.859 145.069 133.683 144.349C132.86 145.772 131.757 142.664 134.131 141.214C132.182 139.895 129.239 138.106 127.945 136.381ZM138.79 149.839C140.285 152.538 141.982 152.62 144.086 153.391C142.362 151.104 141.453 148.569 138.79 149.839ZM156.252 162.922C156.84 163.084 157.473 163.034 158.273 162.214C157.692 161.685 157.244 159.73 155.828 160.574C155.69 161.751 157.158 161.953 156.79 162.592C156.649 162.536 156.5 162.501 156.252 162.922ZM159.831 162.568C158.005 164.923 158.788 162.27 158.143 162.813C158.373 163.147 157.551 163.924 157.14 164.204C159.444 164.065 158.584 166.44 161.736 164.534C161.764 165.82 163.73 165.926 162.641 167.892C163.645 167.196 163.047 167.289 163.976 166.038C162.646 165.631 162.69 164.387 162.202 163.469C160.483 165.972 160.298 163.14 159.831 162.568ZM165.272 167.593C166.967 167.997 165.971 170.234 167.254 170.295C166.957 169.259 168.305 167.226 167.63 166.418C166.438 169.239 166.973 166.144 165.272 167.593ZM112.918 132.496C112.669 127.619 108.248 126.624 105.831 124.304C106.21 124.75 105.407 125.856 104.697 126.299C107.352 128.876 109.76 131.768 112.918 132.496ZM151.143 157.434C150.708 157.298 151.173 154.914 150.664 156.421C150.768 156.533 150.853 156.655 150.532 157.025C149.686 156.756 149.522 156.075 149.237 155.467C147.976 157.115 150.456 157.834 151.143 157.434ZM145.069 167.115C144.737 168.625 146.254 167.117 146.83 167.608C146.645 167.865 146.617 168.243 147.033 167.745C147.319 166.061 146.335 166.604 145.069 167.115ZM125.479 52.2031C126.972 51.2477 126.116 51.7723 127.427 50.7572C132.047 55.6715 135.164 57.6425 139.739 61.7618C139.428 62.113 139.202 62.0857 138.867 62.5518C139.612 62.6551 141.981 61.7036 140.975 64.6577C141.41 64.445 141.893 64.019 142.387 63.5368C142.572 63.7725 141.948 64.4994 141.588 65.0652C141.816 65.0875 142.126 64.7358 142.328 64.8751C143.241 64.7945 141.998 64.0044 143.331 63.4844C144.492 64.822 142.855 66.5992 145.573 64.9854C146.349 65.9348 145.908 68.0534 147.683 67.0863C147.919 67.6313 147.593 68.1007 146.883 68.6172C149.002 67.6036 149.001 69.5485 150.477 70.3379C149.896 70.8687 149.419 70.9091 148.994 70.7186C148.008 72.4237 150.248 71.1355 149.417 73.0658C148.46 73.1089 147.461 74.1186 147.324 73.0351C146.673 76.3822 150.914 77.9627 152.431 78.5249C151.549 78.7233 151.035 81.0867 152.302 79.124C152.357 79.7848 151.409 81.0561 151.779 81.525C150.904 82.7063 150.352 81.552 150.035 83.1058C150.632 83.6941 151.438 81.1074 152.391 81.9325C152.59 81.0328 151.986 80.6172 153.245 79.0711C153.47 79.4747 153.892 78.9664 154.324 78.415C154.423 79.9106 152.136 79.7524 152.853 80.8717C154.202 79.7397 156.195 80.3912 157.044 80.9273C156.078 78.0257 153.103 78.8104 152.343 75.7145C154.49 73.0945 154.743 75.3766 154.714 76.6159C155.319 76.8556 155.01 75.6309 156.051 74.7611C156.07 75.2057 157.45 75.8892 157.68 75.854C157.62 77.4283 156.169 76.4688 155.528 77.1621C155.882 77.5605 156.686 80.2253 159.31 76.948C158.924 78.05 158.166 79.3783 158.657 79.9475C158.865 79.4739 159.078 78.9981 158.919 78.7461C160.197 78.333 158.065 81.2886 156.913 81.5283C158.352 84.5397 163.507 87.2953 167.317 90.5681C169.174 92.1589 171.617 93.5733 172.762 95.5903C173.476 96.8514 177.398 99.0283 179.688 100.234C179.861 100.561 179.019 101.509 178.556 102.224C181.787 100.479 181.872 104.583 185.335 105.396C185.518 105.63 184.897 106.356 184.536 106.921C184.77 107.4 186.441 106.082 185.016 107.932C189.027 106.426 190.304 110.48 192.408 111.51C192.702 111.658 193.532 110.902 193.483 110.857C193.876 111.213 193.344 113.014 194.111 113.34C195.011 113.724 195.195 114.122 195.813 115.172C196.372 116.115 197.636 117.859 197.997 118.009C198.28 118.128 198.951 117.03 199.277 117.491C199.537 117.865 198.845 118.721 198.893 119.188C199.079 119.002 200.798 119.975 201.793 119.869C200.264 121.574 204.957 122.025 206.014 124.072C205.22 124.939 204.748 124.57 204.475 125.79C206.12 125.879 207.833 123.517 207.252 126.966C209.566 125.676 209.358 127.118 210.975 128.087C210.31 129.005 209.997 128.303 209.233 129.668C210.768 128.112 210.037 130.745 211.659 129.234C211.784 129.441 211.492 129.889 211.241 130.08C213.636 129.13 215.187 131.725 216.216 132.975C215.072 134.079 215.143 134.719 214.471 134.557C214.608 135.549 215.673 136.956 213.893 138.291C214.582 137.958 214.794 138.098 214.707 138.84C215.178 138.3 215.209 138.024 215.11 137.83C216.866 140.254 219.69 143.244 220.501 145.474C221.444 144.346 220.888 145.335 222.187 145.23C221.733 145.535 221.214 146.129 220.646 146.947C221.231 147.122 222.35 144.832 222.797 145.642C220.637 148.984 225.144 146.647 224.035 148.533C224.329 148.618 224.818 147.801 225.241 147.279C225.538 148.627 226.072 148.507 227.687 148.917C224.614 149.798 227.267 150.141 228.372 150.063C227.745 151.165 227.507 150.462 226.961 151.181C226.676 152.248 227.202 153.321 228.519 151.537C227.854 154.431 229.049 155.173 229.51 157.705C227.233 158.939 225.362 158.112 222.95 156.743C222.501 156.745 222.604 157.39 221.948 158.135C218.271 157.248 216.389 153.873 212.259 154.39C214.996 160.535 222.007 162.158 225.661 166.816C223.41 167.163 222.597 167.043 220.454 166.075C219.679 167.5 221.31 167.464 221.082 168.557C220.233 169.24 219.757 168.21 218.988 168.529C220.668 171.968 224.039 172.953 227.356 176.201C226.338 178.021 226.209 175.75 225.073 178.11C219.129 173.085 210.755 174.449 209.331 168.93C210.236 167.987 210.603 169.517 211.293 169.561C211.051 166.39 208.271 165.331 206.185 164.071C200.353 160.554 194.452 157.167 188.811 153.802C188.493 154.257 188.8 154.331 188.886 154.539C181.708 152.639 172.681 146.685 168.309 140.748C167.762 141.115 167.454 140.387 166.697 141.728C166.678 138.286 163.713 138.653 161.532 137.574C155.948 134.824 152.157 128.163 146.715 126.27C148.933 124.393 146.222 125.688 145.29 125.315C141.564 123.816 137.672 118.658 133.736 116.194C133.126 119.931 138.692 119.715 139.065 123.892C138.304 125.248 138.344 122.915 137.582 124.273C138.297 129.849 144.419 127.936 145.149 133.472C145.765 133.198 145.613 132.652 146.561 132.354C152.617 134.937 159.544 141.967 165.521 147.128C166.228 147.741 167.791 146.793 168.767 147.239C176.97 150.999 179.941 160.135 187.671 163.35C183.125 162.341 181.341 159.103 176.001 156.903C175.707 156.817 175.219 157.635 174.794 158.159C172.21 156.372 172.345 154.348 170.296 153.08C160.404 146.943 149.968 138.125 137.384 133.765C136.355 133.622 136.204 135.378 135.305 135.812C134.74 132.324 130.557 133.538 131.199 128.933C130.349 128.98 130.823 130.34 130.807 130.733C127.834 130.888 129.013 124.311 125.217 124.237C124.382 125.872 125.602 126.259 125.177 127.647C124.987 128.075 123.789 126.952 124.085 126.228C121.876 128.226 119.392 124.469 118.047 122.867C116.107 124.897 114.582 119.82 112.025 121.581C116.743 126.366 124.868 129.275 128.817 135.591C129.462 134.85 129.29 134.606 129.08 134.39C130.142 134.084 130.675 134.755 129.836 136.272C130.585 136.892 130.285 135.517 131.245 135.155C131.527 135.994 131.505 136.352 131.597 136.765C134.371 136.669 135.168 139.719 136.429 141.38C139.58 144.513 135.626 140.007 133.665 142.278C136.832 146.382 143.368 148.428 145.905 152.545C144.318 154.973 145.177 152.071 143.958 153.989C144.892 155.877 146.903 156.007 147.9 157.322C148.724 155.605 146.708 155.614 148.277 153.444C150.069 154.226 151.416 156.217 152.756 156.451C150.299 159.783 153.633 160.487 155.407 158.225C156.658 158.073 154.879 159.763 155.756 159.836C156.094 159.895 156.626 159.054 156.425 158.909C159.535 160.211 166.465 164.21 168.851 167.239C168.905 167.728 168.515 168.487 167.921 169.369C168.802 169.374 168.877 167.793 169.593 167.051C170.659 169.228 173.127 168.541 173 170.707C171.89 172.581 171.611 170.652 170.904 170.68C170.586 171.871 171.561 171.315 169.974 172.807C175.091 175.578 176.282 176.439 180.364 179.772C175.545 180.978 174.294 175.579 170.137 176.354C169.25 173.859 166.821 174.456 165.581 172.614C164.976 172.372 165.285 173.599 164.244 174.469C163.23 174.556 163.753 174.201 163.022 173.648C161.983 174.8 162.798 174.827 162.631 175.449C161.592 176.536 162.38 173.957 161.074 175.094C160.755 177.713 164.692 174.432 165.279 177.224C164.8 178.202 165.655 177.954 164.481 178.75C165.557 179.311 165.433 180.605 166.794 180.991C167.691 181.577 166.252 181.814 166.051 181.182C163.932 180.226 160.393 180.311 160.553 177.493C158.628 178.413 159.719 176.303 158.384 176.728C158.693 175.856 159.576 174.67 160.464 174.683C158.378 170.388 153.418 169.269 149.796 166.846C148.953 170.64 153.856 169.002 153.625 172.852C151.441 172.834 150.344 171.283 148.81 170.31C150.283 169.013 148.368 168.026 147.441 168.017C146.994 168.014 147.093 168.665 146.439 169.408C145.666 167.738 143.97 168.235 142.364 166.677C142.604 165.923 143.414 164.822 143.091 164.411C141.291 167.783 142.943 162.864 141.127 163.783C144.928 161.068 142.609 167.025 145.33 165.915C144.378 162.51 143.339 159.532 139.947 159.553C139.101 160.761 140.466 160.627 138.884 162.282C137.362 161.256 137.079 160.1 135.218 159.823C135.735 159.236 136.006 159.781 136.369 159.905C136.477 156.028 133.377 154.063 130.836 152.072C129.87 152.634 129.853 153.542 129.907 154.199C128.949 155.378 128.566 153.922 127.682 154.771C127.199 147.473 118.062 148.846 117.984 141.395C117.414 142.312 116.754 141.755 115.5 143.165C113.839 142.238 113.412 139.973 110.553 141.224C110.61 138.054 104.985 139.433 107.319 133.555C102.844 135.921 101.379 134.184 98.7209 131.233C99.2489 130.595 99.4482 131.476 100.002 130.713C99.6027 129.307 98.0883 128.578 97.2075 127.464C96.4901 129.028 98.0281 129.222 98.7796 129.894C96.9169 132.199 97.4848 129.61 96.0732 129.458C97.976 124.203 93.1305 124.134 90.6882 123.095C90.3211 124.098 91.4884 124.171 91.4469 124.976C88.2739 125.595 88.1116 121.626 85.6102 121.754C86.0578 121.134 86.5019 120.518 86.9474 119.899C83.7806 116.162 80.2792 115.206 75.6871 113.725C75.0378 113.678 75.4122 114.613 74.4786 114.98C69.7512 112.122 65.3325 107.642 59.421 106.948C59.3155 107.512 61.7082 107.7 59.9175 110.031C59.6292 108.781 57.5529 107.626 57.923 105.254C52.7083 102.594 46.1966 100.357 40.7686 97.1919C36.2773 94.5775 31.0296 93.089 26.5983 90.4447C17.8558 85.2294 11.7903 79.0582 4.58078 73.6226C2.48245 72.041 0.87533 70.1284 0.809201 66.28C4.3689 62.4071 5.48954 64.5687 8.43007 64.5116C8.48847 63.3467 9.24542 61.7577 8.47139 61.0991C8.73555 60.8556 10.2639 59.6575 9.80859 59.2443C13.6202 55.3492 15.1219 58.6286 18.0952 56.5523C18.376 53.6608 14.9765 54.9818 13.3368 52.6734C12.6648 54.3837 13.3462 55.2726 14.2432 56.0302C11.279 56.6043 9.04203 53.3975 8.31767 49.9969C10.6011 48.4604 9.89864 51.1936 12.3753 50.6549C13.4748 48.1802 15.0361 48.3261 16.1266 46.2906C16.1464 45.2363 15.3 44.7077 14.7581 43.9976C15.6833 43.6746 16.9687 41.6992 17.7814 41.899C18.9948 40.2931 18.7394 39.5804 18.9724 38.5701C18.7336 38.0792 16.7838 40.2558 17.0974 40.7513C15.3003 42.3725 16.1103 37.9257 14.3909 40.3155C15.407 38.06 16.804 39.0097 17.8234 38.487C18.3327 36.9617 17.6431 36.1671 17.6611 34.9402C19.0559 34.0252 19.3012 36.0118 19.9019 36.4431C20.35 36.4437 20.2506 35.7952 20.904 35.0515C20.2062 33.3179 18.2252 31.09 17.222 30.5204C18.6688 28.4477 17.6388 31.1269 18.7067 30.1378C18.8182 27.5946 21.4417 23.8477 24.2996 19.4458C26.0439 19.3686 26.7388 18.9005 27.818 20.4322C28.3482 20.1681 28.5541 19.3859 29.5637 18.85C30.6142 16.5697 28.8451 15.1791 27.8439 14.9476C29.8385 13.2673 29.6407 10.9906 29.4267 9.81811C30.4617 8.27046 31.0254 8.9049 31.9129 8.04636C34.9924 2.2391 38.5552 3.16049 41.6528 0.82396C46.2924 2.4398 48.7122 7.78225 53.3376 9.34338C54.7986 9.83806 56.9366 9.38207 58.3414 9.94769C61.5414 11.2293 64.1536 13.5386 67.2323 15.2184C76.5638 20.3161 84.3308 26.8304 94.5139 31.4447C97.7368 32.9055 101.926 34.3506 105.295 36.6094C110.917 40.3769 117.628 43.0058 120.719 48.3262C121.249 48.0621 121.478 47.1729 122.335 47.3426C122.1 50.253 127.468 47.2561 125.479 52.2031Z" fill="#73CAE4" fill-opacity="0.26"/>
</svg>