<svg xmlns="http://www.w3.org/2000/svg" width="230" height="180" viewBox="0 0 230 180" fill="none">
  <path fill-rule="evenodd" clip-rule="evenodd" d="M88.937 115.864C90.0168 114.901 88.9599 117.113 90.0854 115.939C89.8727 114.498 91.0289 112.211 90.1419 111.189C89.9548 112.533 89.4296 112.458 88.6982 113.657C89.9548 112.082 90.1442 114.872 88.937 115.864ZM116.384 125.023C116.847 125.166 116.812 124.178 117.249 124.226C120.294 126.124 122.674 130.032 127.212 130.088C128.65 133.384 132.172 134.106 134.669 135.675C136.476 136.81 137.656 139.532 140.989 137.778C137.703 135.117 133.541 133.48 131.276 130.71C127.089 129.511 123.103 125.844 118.035 122.69C117.954 122.216 119.274 120.874 118.944 120.554C118.138 121.444 117.426 121.886 116.806 121.881C110.277 116.727 104.496 112.954 100.251 109.631C100.182 109.126 101.636 106.361 100.217 107.558C100.302 107.813 100.22 109.412 99.6358 109.226C97.65 106.479 88.73 103.12 87.2251 98.3332C87.3859 98.5837 87.178 99.062 86.975 99.538C83.6816 96.8624 79.3639 96.4132 77.8776 92.8749C79.7981 96.9454 81.752 101.864 86.5989 101.341C86.2696 101.809 85.9394 102.275 85.61 102.74C88.1415 101.142 87.6114 106.006 88.6372 106.101C93.7413 103.293 92.1913 109.131 95.4017 110.544C97.7257 108.293 99.3144 111.254 99.6246 112.638C104.835 115.692 111.308 119.664 116.384 125.023ZM75.0773 95.1356C74.6669 94.0662 75.885 93.8771 76.6017 93.4039C76.8591 92.0372 75.6107 91.65 74.3476 91.9212C76.0475 91.8379 73.4889 94.9588 74.3831 93.9942C74.727 94.2091 75.4142 92.7759 75.7835 92.8625C75.2244 93.6867 74.7116 94.2831 74.257 94.5958C75.1785 94.2609 74.1777 96.3046 75.0773 95.1356ZM72.5731 94.8549C74.5828 89.8815 69.4265 90.5747 68.8609 86.9444C68.0675 87.7733 67.4337 87.831 66.8476 87.6707C66.1078 86.8222 64.7258 84.1683 62.8274 85.7134C63.5933 86.1115 62.8955 87.4168 63.2723 88.0544C64.4664 86.836 66.4319 87.7357 66.3893 88.7405C65.0216 90.541 66.0012 87.9775 64.9116 89.1331C66.5243 89.9111 71.2886 90.4145 72.5731 94.8549ZM62.7473 84.9754C61.3902 84.7243 61.4585 81.5555 59.3434 83.423C60.673 83.2876 61.3743 86.2264 62.7473 84.9754ZM81.7717 95.4338C82.3469 95.7622 83.5124 95.013 83.707 93.9708C83.2662 93.4749 82.5772 94.1737 81.7717 95.4338ZM76.6952 90.7254C77.2213 90.0535 77.8401 88.9555 78.2202 88.9941C78.8163 89.933 80.6401 91.4259 81.8268 90.6862C75.8909 84.7763 68.577 80.1785 65.0338 76.2263C65.2653 76.2285 65.4473 76.4796 65.774 76.0281C65.3594 75.0349 64.4166 76.5776 63.7587 76.7558C62.4617 73.7555 58.6624 72.7608 57.4179 70.42C57.6197 69.9637 57.3062 69.8294 57.0868 69.6364C57.1534 69.9219 57.286 70.1697 57.4179 70.42C57.3531 70.5641 57.2366 70.7443 57.04 70.9726C55.2308 69.0737 53.7737 70.4433 54.0115 67.6134C52.7936 69.3721 52.4773 66.7803 51.2594 68.536C57.6136 74.9401 69.2843 81.2943 75.9647 87.5134C75.4426 89.0096 74.4232 87.8221 74.7689 88.7805C75.8237 87.7905 74.869 90.2428 76.1241 88.9861C76.3836 86.0722 77.0281 88.973 76.6952 90.7254ZM26.2893 54.176C25.3102 55.8217 26.6544 55.5443 27.5199 54.9843C26.9486 54.3771 27.5669 53.0352 26.336 52.8368C25.6872 53.5877 25.7945 54.2339 25.3464 54.2374C24.3974 54.1272 26.4261 52.1712 25.3109 52.1644C24.7452 53.019 24.3349 53.123 24.0345 52.6958C22.324 55.3529 24.4228 56.2457 26.2893 54.176ZM19.3213 49.5951C19.3236 51.2072 21.1911 52.6963 22.5553 53.0874C23.6822 48.1981 18.6913 51.0841 19.4127 46.9211C18.9139 47.4514 18.4733 47.7007 18.1382 47.4481C16.3133 50.1021 18.1246 50.0578 19.3213 49.5951ZM29.2163 51.3111C28.1907 51.4245 29.2358 50.2514 29.0541 49.8422C28.3966 50.7658 28.077 50.0667 27.3256 51.4391C27.9253 52.187 27.842 52.6405 29.2163 51.3111ZM47.203 64.5053C42.5562 61.3409 39.4788 56.7349 33.8827 55.751C37.7668 58.6781 41.3459 62.3041 47.203 64.5053ZM51.4529 72.0836C51.3466 71.9749 51.2591 71.8534 51.5775 71.481C51.9107 71.741 52.3558 71.4685 52.852 70.954C52.3464 70.0273 51.413 71.1515 50.6333 71.5442C51.3298 71.3498 50.3296 73.391 51.4529 72.0836ZM49.5032 64.6511C48.4534 65.9644 48.0384 64.2317 47.0791 65.1085C47.3991 65.5203 46.9634 66.4011 46.9077 67.0474C49.7348 65.6888 48.4621 69.1387 51.382 67.9377C51.5984 65.8611 47.3311 66.6565 49.5032 64.6511ZM74.9267 77.9467C74.7117 77.5252 75.3939 77.3733 75.9162 76.5461C74.2767 77.2478 76.5323 74.6834 75.0165 75.2716C75.2589 75.8125 74.9359 76.2843 74.2302 76.8066C74.4244 77.0724 74.2771 78.8202 74.9267 77.9467ZM38.1852 46.2718C38.8292 45.7873 39.6059 44.6649 40.1184 44.8104C38.571 47.1505 41.2527 47.3916 41.8852 45.2855C40.4997 46.5599 39.6627 41.9953 36.5565 41.7834C35.414 45.2564 37.292 44.7467 38.1852 46.2718ZM27.9492 36.1239C27.1469 35.9489 27.1022 33.0187 25.9005 34.7771C25.88 35.4635 26.3931 38.1028 27.9492 36.1239ZM23.1547 32.2899C23.3876 31.2752 22.3999 31.1694 21.5962 31.9468C21.8753 32.611 22.1134 32.9611 23.1547 32.2899ZM21.7194 31.3491C21.9741 30.0479 20.5736 28.4046 19.1818 28.9939C20.1359 30.064 20.2285 31.8818 21.7194 31.3491ZM143.588 107.359C142.733 105.7 141.889 104.58 140.309 105.204C140.384 106.388 142.417 107.726 143.588 107.359ZM139.694 104.801C139.383 104.445 139.189 102.703 138.056 103.722C137.921 104.353 138.836 105.65 139.694 104.801ZM157.445 115.784C158.238 117.269 160.32 117.41 161.669 117.879C160.713 116.798 159.824 115.749 157.445 115.784ZM150.067 110.934C148.073 109.785 146.138 107.517 143.669 108.095C146.649 109.31 147.18 111.472 150.067 110.934ZM57.6651 55.6584C57.9647 56.0205 58.446 58.3904 59.8378 56.4078C58.5886 56.2079 59.134 54.3384 57.6651 55.6584ZM42.6241 45.0892C41.5222 46.4824 42.2681 47.6376 43.319 46.2283C43.6166 44.9257 42.3667 46.2036 42.6241 45.0892ZM27.4931 37.1952C30.4219 37.2092 30.8799 41.4924 34.5063 40.4357C31.97 39.29 31.4752 35.7546 27.4931 37.1952ZM48.647 49.7329C46.535 48.989 45.8882 45.1594 42.8622 47.299C45.1583 47.6531 45.4843 52.4048 48.647 49.7329ZM99.5385 74.9832C99.3218 73.6335 97.7705 73.1109 98.1946 71.3653C99.4092 72.9102 102.2 75.738 104.057 74.5357C100.716 71.3297 96.6285 70.2072 94.1863 65.9964C94.3958 65.6044 94.831 65.0725 94.6396 64.929C94.2011 65.5495 93.7598 66.1739 93.3199 66.7963C93.2004 65.6808 91.4668 64.1764 90.1229 65.375C90.6301 68.5732 93.3922 70.4826 95.3596 71.5536C95.4516 71.259 94.8514 70.2087 95.6095 70.3489C96.3442 72.0797 97.8608 74.7099 99.5385 74.9832ZM85.5671 63.7485C86.7127 63.1905 85.9056 65.0157 87.127 64.0926C86.9116 63.7588 87.6838 61.5185 86.7615 62.4863C86.8512 62.6917 86.7251 63.0322 86.3087 63.5514C86.0452 63.3267 85.451 63.14 85.5671 63.7485ZM85.1577 63.4805C85.5976 62.8581 86.0374 62.2358 86.478 61.6139C83.4137 57.7536 80.5368 57.1463 76.6884 53.8078C77.5415 60.2231 83.2801 58.0505 85.1577 63.4805ZM75.8673 53.2704C75.5693 51.8974 71.088 51.7178 73.0422 50.0485C73.2456 49.4203 70.2957 50.3944 70.4119 50.3694C71.7335 51.6363 74.029 54.6974 75.8673 53.2704ZM69.1835 49.5596C69.6288 48.9147 70.0043 48.6009 70.3786 48.295C70.1901 47.7166 70.6403 46.1102 69.3535 47.6226C69.6734 48.0345 69.2385 48.9157 69.1835 49.5596ZM105.959 71.0009C105.403 69.3369 103.012 68.8124 103.918 66.243C104.253 66.5016 104.699 66.2266 105.192 65.7154C103.255 66.8078 106.11 63.4188 104.499 64.5749C103.439 65.9362 101.177 62.5681 100.026 63.6826C100.381 67.3665 102.475 71.016 105.959 71.0009ZM114.372 73.1128C114.309 68.7671 112.315 73.2561 110.193 69.6828C109.595 72.0809 113.424 72.6538 110.214 75.1689C112.997 73.2126 114.004 79.7615 116.693 78.7436C116.917 77.5583 115.802 77.2029 116.91 75.468C116.745 76.1503 117.734 76.2572 118.47 75.8066C116.787 75.1948 116.434 72.0897 114.372 73.1128ZM118.345 76.4088C118.966 76.4118 119.282 77.8714 120.11 76.8853C119.539 76.1756 119.624 75.2399 118.345 76.4088ZM203.472 120.747C206.722 121.936 206.23 123.468 209.459 123.317C208.632 121.831 206.208 118.525 203.472 120.747ZM219.957 128.851C219.351 128.266 218.04 128.121 218.237 127.037C217.532 129.047 218.503 129.895 219.957 128.851ZM126.344 65.9466C124.126 64.9975 124.345 61.8844 122.121 63.8525C123.447 63.2682 124.457 67.7344 126.344 65.9466ZM108.117 50.5465C108.447 50.0798 108.778 49.6112 109.107 49.1464C109.09 48.3597 107.333 48.27 108.049 46.3972C105.789 49.1752 105.593 44.6319 103.493 44.7736C103.06 48.3811 106.878 47.9723 108.117 50.5465ZM102.015 45.1657C102.583 41.0101 97.961 42.6475 98.7922 38.2614C102.395 40.1706 104.243 44.1895 109.118 45.7342C109.061 45.0711 108.208 44.9013 108.548 43.993C110.962 44.0123 110.763 45.9781 110.712 48.1502C111.459 46.8014 111.774 47.5259 112.316 47.1535C112.133 48.6059 112.013 50.8487 113.911 49.57C109.799 39.9115 95.9736 31.1429 89.4198 27.3173C92.6913 31.5993 96.6693 31.7662 98.5513 36.0554C95.7163 37.3379 96.6166 31.5377 92.7685 33.6202C94.2683 33.8828 95.0223 36.5397 96.2051 37.2492C97.0151 35.8193 98.1458 38.9173 95.7851 40.3882C97.7465 41.6896 100.705 43.4523 102.015 45.1657ZM91.0485 31.8058C89.5292 29.1208 87.8318 29.0535 85.7212 28.3018C87.4653 30.5734 88.3971 33.1 91.0485 31.8058ZM73.4692 18.8809C72.8803 18.7245 72.2478 18.7803 71.4552 19.6068C72.041 20.1306 72.5064 22.0813 73.9141 21.2248C74.0416 20.0463 72.5723 19.8584 72.9343 19.2152C73.0761 19.2701 73.2254 19.3041 73.4692 18.8809ZM69.8939 19.2676C71.6985 16.8953 70.9394 19.5557 71.5799 19.007C71.3462 18.6748 72.1611 17.8908 72.5701 17.607C70.2669 17.767 71.1061 15.384 67.9705 17.3187C67.9317 16.0324 65.9645 15.9442 67.036 13.9689C66.0381 14.6741 66.6354 14.5756 65.7177 15.8343C67.0509 16.2295 67.0188 17.4735 67.5143 18.3871C69.2108 15.8696 69.4212 18.6989 69.8939 19.2676ZM64.4079 14.2913C62.7091 13.9032 63.6852 11.6568 62.4009 11.6077C62.708 12.641 61.3782 14.6859 62.0603 15.4871C63.2269 12.6562 62.7196 15.7557 64.4079 14.2913ZM117.076 48.9149C117.369 53.7894 121.799 54.7446 124.236 57.0424C123.854 56.6003 124.647 55.4867 125.353 55.0378C122.675 52.4848 120.241 49.6146 117.076 48.9149ZM78.6272 24.3225C79.0641 24.4547 78.6203 26.8431 79.1161 25.331C79.0104 25.2198 78.9243 25.0994 79.242 24.7265C80.0904 24.9872 80.2609 25.6671 80.5512 26.2719C81.7977 24.613 79.3108 23.9164 78.6272 24.3225ZM84.6136 14.5872C84.9322 13.0739 83.4295 14.5954 82.8483 14.1101C83.0317 13.8519 83.0558 13.4732 82.6442 13.9752C82.3741 15.6612 83.3532 15.1097 84.6136 14.5872ZM105.24 129.318C103.756 130.286 104.607 129.754 103.305 130.781C98.6411 125.909 95.5061 123.966 90.8945 119.888C91.2018 119.534 91.4286 119.559 91.7594 119.09C91.0131 118.994 88.6532 119.966 89.632 117.003C89.1989 117.22 88.7202 117.65 88.2301 118.137C88.0434 117.903 88.6606 117.17 89.0157 116.601C88.7875 116.581 88.4809 116.936 88.2776 116.798C87.3646 116.887 88.6152 117.666 87.2865 118.198C86.1138 116.871 87.7343 115.079 85.0309 116.717C84.2464 115.775 84.6684 113.652 82.9021 114.635C82.6612 114.093 82.9835 113.62 83.6884 113.097C81.579 114.13 81.5626 112.185 80.0791 111.409C80.6554 110.873 81.132 110.828 81.5589 111.015C82.5288 109.301 80.3011 110.609 81.1147 108.672C82.0711 108.62 83.0613 107.601 83.208 108.684C83.8282 105.331 79.5733 103.789 78.0514 103.24C78.9313 103.034 79.424 100.666 78.1753 102.64C78.1138 101.98 79.0511 100.7 78.6768 100.234C79.5403 99.045 80.1027 100.194 80.406 98.6378C79.8033 98.0548 79.0208 100.649 78.0605 99.8322C77.87 100.734 78.4772 101.144 77.2324 102.701C77.0043 102.3 76.5865 102.812 76.1593 103.367C76.0469 101.872 78.3357 102.01 77.6079 100.897C76.2697 102.041 74.2704 101.408 73.417 100.879C74.4093 103.772 77.3772 102.961 78.1648 106.05C76.042 108.689 75.7678 106.409 75.786 105.17C75.1786 104.935 75.499 106.157 74.4656 107.036C74.443 106.592 73.0567 105.921 72.827 105.958C72.8725 104.383 74.3318 105.33 74.9671 104.631C74.6091 104.236 73.7811 101.578 71.1871 104.879C71.5631 103.774 72.3092 102.438 71.8132 101.874C71.6095 102.349 71.4009 102.827 71.5618 103.077C70.2876 103.502 72.3926 100.527 73.5424 100.277C72.0768 97.2789 66.8965 94.5699 63.057 91.3316C61.1858 89.7576 58.7307 88.3653 57.5675 86.3587C56.8424 85.1041 52.9006 82.9627 50.5996 81.7779C50.4238 81.452 51.2574 80.4966 51.7139 79.7775C48.4983 81.552 48.3763 77.4486 44.906 76.667C44.7214 76.4345 45.3358 75.7029 45.6916 75.1344C45.4535 74.6582 43.7941 75.9909 45.2021 74.1284C41.2055 75.67 39.8921 71.6283 37.7786 70.6164C37.4827 70.4712 36.6598 71.2348 36.7097 71.2794C36.3134 70.9271 36.8292 69.1214 36.0593 68.8025C35.1561 68.426 34.9682 68.0299 34.3406 66.9862C33.7735 66.0476 32.4933 64.3148 32.1311 64.1688C31.8468 64.0524 31.1863 65.1558 30.856 64.6983C30.5922 64.3268 31.2772 63.464 31.2248 62.9981C31.0405 63.1853 29.3129 62.228 28.3184 62.3432C29.8324 60.6244 25.1347 60.2158 24.0594 58.1785C24.8459 57.3036 25.3213 57.6689 25.5831 56.4461C23.938 56.3722 22.2463 58.7495 22.7955 55.2958C20.4937 56.6067 20.6887 55.1629 19.0623 54.2078C19.7191 53.2837 20.0393 53.9833 20.7906 52.6109C19.2693 54.1807 19.9764 51.5415 18.3686 53.0668C18.2414 52.8609 18.5295 52.4109 18.7785 52.2175C16.3925 53.1891 14.8184 50.6085 13.778 49.3678C14.912 48.2528 14.8352 47.614 15.5086 47.7695C15.363 46.779 14.2847 45.382 16.0528 44.0306C15.3667 44.3705 15.1536 44.232 15.2344 43.4892C14.7676 44.0337 14.7389 44.3093 14.8403 44.5024C13.0622 42.0949 10.211 39.13 9.38067 36.908C8.4476 38.0442 8.99482 37.0502 7.69684 37.1672C8.14801 36.8579 8.66151 36.259 9.22207 35.4359C8.63515 35.2662 7.53754 37.5659 7.08274 36.7608C9.21243 33.399 4.72673 35.7771 5.81871 33.881C5.52415 33.7983 5.04286 34.6197 4.62385 35.1457C4.31542 33.8005 3.78261 33.925 2.16347 33.5296C5.22825 32.6205 2.57267 32.3014 1.46783 32.3901C2.08574 31.2826 2.32986 31.9831 2.86893 31.2589C3.14442 30.1898 2.60887 29.1214 1.30815 30.9172C1.9469 28.0178 0.745345 27.2859 0.261113 24.7584C2.52744 23.5042 4.4052 24.3143 6.82953 25.6611C7.27895 25.6556 7.16963 25.0109 7.81907 24.2604C11.5039 25.1142 13.4159 28.4716 17.542 27.9178C14.7492 21.7976 7.72414 20.2381 4.02813 15.6129C6.27619 15.246 7.08961 15.3586 9.2411 16.3068C10.0033 14.8748 8.3727 14.9258 8.59145 13.8305C9.43435 13.1399 9.91932 14.1661 10.6857 13.84C8.97465 10.4158 5.59451 9.46132 2.24833 6.24331C3.25023 4.4145 3.39991 6.68399 4.51457 4.31438C10.5028 9.28503 18.8648 7.84572 20.3381 13.3518C19.4418 14.3031 19.0609 12.7768 18.3709 12.7383C18.6414 15.9072 21.4307 16.9415 23.5276 18.1819C29.3916 21.6464 35.3225 24.9802 40.9935 28.2943C41.3075 27.8365 40.9997 27.7648 40.9121 27.5581C48.1074 29.3926 57.1871 35.2655 61.6126 41.1632C62.1562 40.7913 62.4711 41.5164 63.2157 40.1685C63.2662 43.6103 66.2274 43.2164 68.4183 44.2752C74.0268 46.9753 77.8781 53.6012 83.3361 55.4451C81.136 57.3424 83.8344 56.0232 84.77 56.3878C88.5095 57.8528 92.448 62.9751 96.4064 65.4041C96.9821 61.6615 91.4188 61.9272 91.0081 57.7542C91.7568 56.3916 91.7372 58.7242 92.4872 57.3597C91.7217 51.7905 85.6176 53.7587 84.8377 48.2291C84.224 48.5095 84.381 49.0535 83.4358 49.3597C77.3564 46.8314 70.3664 39.8647 64.3433 34.7575C63.6302 34.151 62.0762 35.1135 61.096 34.6759C52.8598 30.9902 49.8069 21.8818 42.0481 18.7359C46.6022 19.7042 48.4154 22.926 53.7758 25.0782C54.0703 25.1608 54.5511 24.339 54.9708 23.8106C57.5711 25.5742 57.4543 27.5993 59.5147 28.8488C69.4614 34.8963 79.9768 43.6201 92.5996 47.8661C93.6301 47.9997 93.7653 46.2431 94.6603 45.8011C95.2568 49.2835 99.4288 48.0323 98.828 52.6427C99.6778 52.5878 99.1915 51.2321 99.2034 50.8388C102.175 50.6575 101.055 57.2445 104.852 57.2839C105.672 55.6414 104.448 55.2663 104.861 53.8737C105.047 53.4441 106.256 54.5562 105.966 55.2836C108.157 53.2654 110.674 56.9994 112.034 58.59C113.955 56.542 115.526 61.6047 118.068 59.8209C113.307 55.0785 105.156 52.2429 101.15 45.9637C100.511 46.71 100.685 46.9525 100.898 47.1669C99.8385 47.4819 99.2997 46.8159 100.125 45.2913C99.3701 44.6783 99.683 46.0502 98.7258 46.4211C98.4357 45.5848 98.4551 45.2262 98.3595 44.8143C95.5866 44.9358 94.7614 41.8932 93.4863 40.2433C90.3068 37.1392 94.3009 41.6092 96.242 39.3203C93.0376 35.245 86.4835 33.2585 83.9099 29.1644C85.4745 26.7223 84.6419 29.6319 85.8431 27.7029C84.8923 25.8226 82.8804 25.711 81.8716 24.4051C81.0634 26.1297 83.0788 26.1029 81.5297 28.2863C79.7308 27.5212 78.3653 25.5423 77.0234 25.3198C79.4503 21.9663 76.1097 21.2925 74.357 23.5701C73.1068 23.7332 74.8707 22.0269 73.9935 21.9624C73.6548 21.9067 73.1299 22.7525 73.3326 22.8953C70.2105 21.6218 63.2454 17.6854 60.8319 14.6774C60.7736 14.1896 61.1569 13.4268 61.7428 12.5397C60.8614 12.5426 60.8011 14.1243 60.0916 14.8727C59.0064 12.7051 56.5448 13.4141 56.6523 11.2474C57.7452 9.36376 58.0416 11.2899 58.7484 11.2553C59.055 10.0619 58.0851 10.6261 59.6586 9.12015C54.517 6.39491 53.3185 5.54505 49.2067 2.24889C54.0139 0.999665 55.3136 6.38666 59.4637 5.57439C60.3732 8.06152 62.7969 7.44266 64.0535 9.27289C64.6602 9.50958 64.3405 8.28531 65.3739 7.40609C66.387 7.31012 65.8673 7.66985 66.603 8.21635C67.6312 7.05472 66.8166 7.03516 66.9778 6.41179C68.0067 5.3152 67.2425 7.90166 68.5376 6.75297C68.8328 4.13156 64.9255 7.44744 64.3141 4.66125C64.7839 3.679 63.9314 3.9344 65.0983 3.12768C64.0167 2.576 64.1295 1.28135 62.7647 0.907448C61.8628 0.329477 63.299 0.0801605 63.5064 0.710277C65.6339 1.64716 69.1711 1.52953 69.037 4.34879C70.9533 3.41204 69.882 5.5312 71.2125 5.09431C70.9116 5.96918 70.039 7.16346 69.1511 7.15878C71.2758 11.4347 76.2461 12.5085 79.8893 14.8987C80.698 11.0976 75.8108 12.7793 76.0064 8.92765C78.1906 8.92559 79.3021 10.4668 80.8448 11.4262C79.3828 12.7365 81.3067 13.706 82.234 13.7068C82.6807 13.7052 82.5762 13.0551 83.2236 12.3061C84.0119 13.9698 85.7028 13.4577 87.3225 15.0005C87.0894 15.7569 86.2893 16.8655 86.6163 17.2736C88.3858 13.8846 86.7787 18.8188 88.5864 17.8832C84.8098 20.6331 87.0745 14.655 84.3635 15.7891C85.3465 19.1856 86.4123 22.1546 89.8042 22.1026C90.6392 20.8871 89.2759 21.0335 90.8426 19.3644C92.3732 20.3767 92.6675 21.5298 94.5307 21.7897C94.0191 22.3812 93.7429 21.8394 93.3788 21.7185C93.3057 25.5965 96.4237 27.5329 98.9825 29.5014C99.9431 28.9306 99.9522 28.0219 99.892 27.3656C100.84 26.1782 101.236 27.6306 102.112 26.7734C102.661 34.067 111.785 32.6123 111.93 40.0618C112.492 39.1396 113.156 39.6906 114.398 38.269C116.067 39.181 116.515 41.4422 119.362 40.1655C119.333 43.3363 124.946 41.9062 122.665 47.805C127.119 45.3986 128.599 47.1224 131.284 50.05C130.762 50.6924 130.554 49.813 130.007 50.5814C130.419 51.9834 131.94 52.6984 132.831 53.8051C133.535 52.2339 131.995 52.0539 131.237 51.3891C133.079 49.0671 132.535 51.6618 133.948 51.8005C132.092 57.0725 136.938 57.0977 139.39 58.1151C139.748 57.1082 138.58 57.0459 138.614 56.2403C141.781 55.5927 141.979 59.5602 144.48 59.4098C144.038 60.0337 143.599 60.6542 143.159 61.2766C146.36 64.9852 149.869 65.9097 154.475 67.3489C155.124 67.3906 154.742 66.4583 155.672 66.0828C160.425 68.8983 164.884 73.3387 170.801 73.9789C170.902 73.4145 168.507 73.248 170.277 70.9004C170.577 72.1483 172.663 73.2846 172.315 75.6592C177.553 78.2722 184.085 80.4508 189.541 83.5666C194.056 86.1403 199.317 87.5814 203.772 90.1856C212.561 95.3219 218.682 101.438 225.94 106.808C228.052 108.371 229.677 110.269 229.778 114.117C226.253 118.022 225.113 115.87 222.173 115.954C222.125 117.119 221.382 118.715 222.162 119.367C221.9 119.612 220.383 120.824 220.842 121.233C217.066 125.163 215.534 121.897 212.58 124C212.325 126.894 215.713 125.542 217.373 127.836C218.03 126.12 217.34 125.237 216.437 124.487C219.395 123.886 221.661 127.073 222.416 130.467C220.147 132.024 220.825 129.285 218.353 129.846C217.276 132.33 215.713 132.198 214.641 134.243C214.631 135.298 215.482 135.819 216.03 136.524C215.108 136.855 213.84 138.842 213.026 138.65C211.827 140.267 212.089 140.977 211.865 141.989C212.108 142.478 214.038 140.284 213.72 139.791C215.503 138.154 214.733 142.608 216.431 140.203C215.435 142.467 214.029 141.53 213.015 142.062C212.519 143.592 213.216 144.38 213.209 145.607C211.823 146.535 211.559 144.55 210.955 144.125C210.507 144.128 210.612 144.776 209.965 145.525C210.679 147.252 212.68 149.462 213.688 150.023C212.26 152.109 213.266 149.42 212.207 150.419C212.118 152.963 209.529 156.733 206.711 161.161C204.967 161.254 204.276 161.728 203.183 160.206C202.656 160.475 202.457 161.259 201.452 161.804C200.422 164.094 202.204 165.468 203.207 165.691C201.228 167.389 201.446 169.664 201.671 170.834C200.65 172.391 200.08 171.762 199.2 172.629C196.173 178.463 192.602 177.574 189.526 179.939C184.872 178.365 182.404 173.044 177.765 171.525C176.299 171.043 174.166 171.519 172.756 170.966C169.544 169.713 166.912 167.427 163.818 165.775C154.441 160.762 146.615 154.318 136.391 149.796C133.155 148.364 128.953 146.957 125.564 144.729C119.908 141.012 113.173 138.444 110.034 133.152C109.507 133.42 109.286 134.312 108.428 134.15C108.636 131.237 103.296 134.282 105.24 129.318Z" fill="#73CAE4" fill-opacity="0.26"/>
</svg>