<svg
  xmlns="http://www.w3.org/2000/svg"
  width="231"
  height="180"
  viewBox="0 0 231 180"
  fill="none"
>
  <path
    fill-rule="evenodd"
    clip-rule="evenodd"
    d="M89.5108 115.851C90.5883 114.885 89.5366 117.099 90.6593 115.923C90.4432 114.482 91.5941 112.193 90.7046 111.173C90.5207 112.517 89.9953 112.443 89.2668 113.644C90.5196 112.066 90.7156 114.856 89.5108 115.851ZM116.979 124.945C117.442 125.086 117.405 124.099 117.843 124.145C120.892 126.037 123.281 129.939 127.819 129.984C129.265 133.276 132.789 133.99 135.289 135.553C137.099 136.684 138.285 139.403 141.614 137.641C138.322 134.988 134.156 133.361 131.884 130.596C127.695 129.407 123.7 125.749 118.625 122.608C118.543 122.134 119.859 120.788 119.528 120.47C118.724 121.362 118.014 121.805 117.394 121.801C110.853 116.663 105.062 112.904 100.81 109.59C100.739 109.086 102.187 106.317 100.771 107.518C100.857 107.773 100.779 109.371 100.194 109.187C98.2016 106.444 89.2737 103.107 87.7574 98.3236C87.9188 98.5738 87.712 99.0526 87.5102 99.529C84.2105 96.8613 79.8917 96.4222 78.397 92.8874C80.3272 96.9534 82.2927 101.867 87.1384 101.333C86.8101 101.801 86.481 102.269 86.1527 102.734C88.6805 101.131 88.1618 105.995 89.1878 106.088C94.2853 103.268 92.7492 109.11 95.9629 110.515C98.2815 108.259 99.8772 111.216 100.191 112.6C105.408 115.64 111.89 119.598 116.979 124.945ZM75.6022 95.1548C75.1891 94.0863 76.4068 93.8944 77.1224 93.4194C77.3766 92.0521 76.1273 91.668 74.8648 91.9421C76.5645 91.8548 74.0133 94.9817 74.9052 94.015C75.2496 94.2291 75.9334 92.7943 76.303 92.88C75.7458 93.7056 75.2344 94.3031 74.7805 94.6169C75.7013 94.2798 74.7052 96.3259 75.6022 95.1548ZM73.0973 94.88C75.0952 89.9019 69.9406 90.6073 69.3663 86.9783C68.575 87.809 67.9413 87.8683 67.3548 87.7094C66.613 86.8625 65.2247 84.212 63.33 85.7616C64.0968 86.1578 63.4021 87.4648 63.7804 88.1014C64.9717 86.8803 66.9393 87.7753 66.899 88.7802C65.5356 90.5839 66.5092 88.0181 65.4222 89.1763C67.0368 89.9505 71.8022 90.4426 73.0973 94.88ZM63.2481 85.0237C61.8905 84.7759 61.9513 81.6069 59.8406 83.4794C61.1698 83.3408 61.8781 86.278 63.2481 85.0237ZM82.2972 95.4371C82.8732 95.7642 84.0369 95.0122 84.2291 93.9696C83.787 93.4748 83.0997 94.1751 82.2972 95.4371ZM77.2095 90.7407C77.7341 90.0676 78.3503 88.9682 78.7305 89.0058C79.3288 89.9433 81.1562 91.4319 82.3411 90.6894C76.3912 84.7936 69.0665 80.213 65.514 76.2692C65.7455 76.2709 65.9281 76.5216 66.2537 76.0693C65.8368 75.0771 64.8976 76.622 64.2401 76.8018C62.9361 73.8045 59.1344 72.8188 57.8844 70.4809C58.0851 70.0242 57.7713 69.8906 57.5514 69.6981C57.6187 69.9835 57.7519 70.231 57.8844 70.4809C57.82 70.6252 57.7038 70.8057 57.5078 71.0345C55.6941 69.1398 54.2402 70.5128 54.4714 67.6824C53.2577 69.4439 52.9352 66.8529 51.7215 68.6115C58.0908 75.0006 69.7764 81.3272 76.4715 87.5305C75.953 89.0279 74.9307 87.8428 75.2788 88.8004C76.3312 87.8079 75.3823 90.2624 76.6344 89.0028C76.887 86.0882 77.5383 88.9875 77.2095 90.7407ZM26.7175 54.3105C25.7423 55.9586 27.0859 55.6779 27.95 55.1159C27.3773 54.5101 27.9924 53.1667 26.7611 52.9712C26.114 53.7236 26.2229 54.3696 25.7748 54.3741C24.8255 54.2662 26.8495 52.3054 25.7344 52.3013C25.1706 53.1572 24.7606 53.2621 24.4592 52.8357C22.755 55.4968 24.8559 56.3846 26.7175 54.3105ZM19.7387 49.7461C19.7448 51.3582 21.6158 52.8429 22.9809 53.2308C24.0962 48.3388 19.1122 51.2366 19.8237 47.0719C19.3262 47.6033 18.8862 47.8538 18.5505 47.6019C16.7319 50.2602 18.5431 50.2116 19.7387 49.7461ZM29.6377 51.4388C28.6124 51.5546 29.6547 50.379 29.4721 49.9702C28.8168 50.8954 28.4955 50.1971 27.7474 51.5712C28.3488 52.3177 28.2666 52.7714 29.6377 51.4388ZM47.6555 64.5904C43.0013 61.4369 39.913 56.8383 34.3146 55.8676C38.2056 58.7855 41.7932 62.403 47.6555 64.5904ZM51.9234 72.1587C51.8167 72.0502 51.729 71.9289 52.0466 71.5557C52.3803 71.815 52.8248 71.5414 53.3197 71.0257C52.8119 70.1002 51.8813 71.2266 51.1024 71.6212C51.7985 71.4251 50.8031 73.4687 51.9234 72.1587ZM49.9561 64.7308C48.9094 66.0465 48.4903 64.3148 47.533 65.1938C47.854 65.605 47.4204 66.4867 47.3662 67.1332C50.1901 65.7679 48.9256 69.2208 51.8426 68.0129C52.0541 65.9358 47.7887 66.7413 49.9561 64.7308ZM75.4109 77.9662C75.1949 77.5453 75.8767 77.3917 76.3971 76.5634C74.7593 77.2689 77.0088 74.6992 75.4944 75.291C75.7381 75.8313 75.4162 76.3039 74.7118 76.8279C74.9065 77.0931 74.7634 78.8413 75.4109 77.9662ZM38.5947 46.3783C39.2375 45.8922 40.0115 44.768 40.5244 44.9123C38.9826 47.2561 41.6648 47.4908 42.2924 45.3832C40.9099 46.6608 40.0621 42.0982 36.9554 41.8937C35.8211 45.3694 37.6979 44.8553 38.5947 46.3783ZM28.3348 36.2545C27.532 36.0815 27.4804 33.1513 26.2828 34.9126C26.264 35.599 26.7833 38.2371 28.3348 36.2545ZM23.5312 32.4319C23.7617 31.4167 22.7737 31.3132 21.9719 32.0925C22.2526 32.756 22.4915 33.1055 23.5312 32.4319ZM22.0937 31.4945C22.3453 30.1927 20.9409 28.5527 19.5505 29.1453C20.5072 30.2132 20.604 32.0307 22.0937 31.4945ZM144.142 107.217C143.282 105.559 142.436 104.441 140.858 105.069C140.936 106.253 142.972 107.586 144.142 107.217ZM140.242 104.667C139.93 104.312 139.731 102.571 138.601 103.593C138.467 104.224 139.386 105.519 140.242 104.667ZM158.018 115.608C158.815 117.092 160.897 117.228 162.248 117.693C161.289 116.615 160.398 115.568 158.018 115.608ZM150.629 110.776C148.632 109.632 146.692 107.369 144.224 107.952C147.207 109.16 147.743 111.321 150.629 110.776ZM58.0967 55.7188C58.3972 56.0802 58.884 58.449 60.2712 56.4631C59.0215 56.2661 59.5625 54.3954 58.0967 55.7188ZM43.0308 45.1851C41.9322 46.5809 42.6808 47.7344 43.7284 46.3226C44.0229 45.0193 42.776 46.3002 43.0308 45.1851ZM27.8812 37.3269C30.81 37.334 31.2781 41.6162 34.9021 40.5509C32.363 39.4111 31.8599 35.877 27.8812 37.3269ZM49.0646 49.8146C46.9509 49.0757 46.295 45.2477 43.2741 47.3944C45.571 47.7431 45.9082 52.494 49.0646 49.8146ZM100.016 74.9446C99.7958 73.5955 98.2432 73.0765 98.6632 71.3299C99.8814 72.8719 102.679 75.6932 104.533 74.4864C101.184 71.2884 97.0944 70.1756 94.6422 65.9705C94.8508 65.578 95.2848 65.045 95.093 64.902C94.656 65.5235 94.2162 66.149 93.7777 66.7724C93.6556 65.6572 91.9185 64.1569 90.5773 65.3587C91.0922 68.5557 93.8587 70.4585 95.8286 71.525C95.92 71.2301 95.3173 70.1812 96.0757 70.3196C96.8145 72.0486 98.3373 74.6753 100.016 74.9446ZM86.0177 63.743C87.1621 63.1823 86.3593 65.0093 87.5785 64.0834C87.3623 63.7501 88.1292 61.5079 87.2091 62.478C87.2994 62.6831 87.174 63.024 86.7589 63.5441C86.4948 63.32 85.9002 63.1348 86.0177 63.743ZM85.6077 63.476C86.0461 62.8525 86.4845 62.2291 86.9236 61.6062C83.8501 57.7532 80.9718 57.1526 77.1156 53.8232C77.9839 60.2366 83.7172 58.0504 85.6077 63.476ZM76.2933 53.2878C75.9919 51.9156 71.5102 51.7465 73.4605 50.0726C73.6624 49.4439 70.7149 50.425 70.831 50.3997C72.1556 51.6635 74.4583 54.7191 76.2933 53.2878ZM69.6006 49.5928C70.0444 48.9468 70.4192 48.6321 70.7927 48.3253C70.6029 47.7474 71.0494 46.1399 69.766 47.6554C70.087 48.0666 69.6542 48.9488 69.6006 49.5928ZM106.426 70.9471C105.866 69.2845 103.475 68.7656 104.375 66.1941C104.711 66.4519 105.156 66.1758 105.647 65.6635C103.713 66.7604 106.56 63.3647 104.952 64.5247C103.894 65.8884 101.625 62.5257 100.477 63.6429C100.84 67.326 102.942 70.9705 106.426 70.9471ZM114.845 73.0392C114.771 68.6936 112.788 73.1874 110.657 69.6191C110.065 72.0186 113.895 72.5825 110.692 75.1051C113.47 73.1422 114.492 79.6887 117.179 78.6645C117.4 77.4787 116.284 77.1259 117.388 75.3883C117.225 76.0711 118.214 76.1757 118.949 75.7233C117.264 75.1154 116.904 72.0113 114.845 73.0392ZM118.826 76.3257C119.446 76.3273 119.766 77.7862 120.591 76.7981C120.019 76.0898 120.102 75.1539 118.826 76.3257ZM204.057 120.462C207.309 121.644 206.821 123.177 210.05 123.019C209.22 121.535 206.788 118.234 204.057 120.462ZM220.561 128.528C219.954 127.945 218.642 127.803 218.836 126.718C218.136 128.73 219.11 129.575 220.561 128.528ZM126.8 65.8447C124.58 64.9008 124.791 61.7873 122.572 63.7606C123.896 63.1731 124.917 67.637 126.8 65.8447ZM108.536 50.4877C108.865 50.0202 109.195 49.5509 109.523 49.0853C109.504 48.2987 107.747 48.2131 108.459 46.3386C106.205 49.1219 105.999 44.5791 103.899 44.7258C103.474 48.3343 107.291 47.9165 108.536 50.4877ZM102.422 45.1214C102.98 40.9644 98.3617 42.6128 99.1825 38.2247C102.79 40.1254 104.648 44.1399 109.526 45.6731C109.467 45.0101 108.614 44.8424 108.952 43.9332C111.366 43.9468 111.172 45.9131 111.126 48.0853C111.87 46.7347 112.186 47.4585 112.728 47.0848C112.548 48.5377 112.433 50.7807 114.328 49.4976C110.194 39.8488 96.3472 31.1128 89.7843 27.3028C93.066 31.577 97.0443 31.7345 98.9365 36.0192C96.1045 37.3084 96.9911 31.5062 93.148 33.5977C94.6483 33.8568 95.4086 36.5119 96.5931 37.2186C97.3998 35.7868 98.5378 38.8821 96.1805 40.3585C98.145 41.6554 101.107 43.4111 102.422 45.1214ZM91.4237 31.7874C89.898 29.106 88.2005 29.0427 86.0881 28.296C87.8376 30.5635 88.7754 33.0879 91.4237 31.7874ZM73.8138 18.9041C73.2246 18.7491 72.5923 18.8064 71.8016 19.6347C72.3887 20.1571 72.8587 22.1067 74.2643 21.2469C74.3891 20.0681 72.9193 19.8837 73.2798 19.2396C73.4217 19.2942 73.5711 19.3278 73.8138 18.9041ZM70.2395 19.2992C72.0385 16.9227 71.2857 19.5849 71.9248 19.0347C71.6904 18.7029 72.5034 17.9171 72.9118 17.6323C70.609 17.7978 71.4425 15.4128 68.3116 17.3549C68.2697 16.0687 66.3023 15.9851 67.3691 14.0072C66.3729 14.7149 66.97 14.615 66.0552 15.8758C67.3894 16.2679 67.3601 17.5119 67.8579 18.4244C69.5484 15.9029 69.7654 18.7317 70.2395 19.2992ZM64.7417 14.3359C63.0421 13.9518 64.0128 11.7032 62.7285 11.6571C63.0379 12.6896 61.713 14.7376 62.397 15.5373C63.5569 12.7035 63.0569 15.8043 64.7417 14.3359ZM117.492 48.835C117.796 53.7087 122.228 54.6535 124.671 56.9455C124.288 56.5043 125.078 55.3888 125.783 54.9383C123.098 52.3917 120.658 49.5272 117.492 48.835ZM78.9847 24.3335C79.4219 24.4647 78.9838 26.8541 79.476 25.3408C79.37 25.2299 79.2837 25.1096 79.6005 24.736C80.4495 24.9948 80.6216 25.6743 80.9133 26.2783C82.1559 24.6165 79.6674 23.9257 78.9847 24.3335ZM84.9481 14.5841C85.2631 13.07 83.764 14.595 83.1816 14.1111C83.3645 13.8525 83.3877 13.4737 82.9773 13.9767C82.7111 15.6634 83.6889 15.1095 84.9481 14.5841ZM105.845 129.265C104.363 130.238 105.213 129.703 103.914 130.733C99.2386 125.872 96.099 123.937 91.4777 119.87C91.7842 119.515 92.0111 119.54 92.3408 119.07C91.5942 118.975 89.2367 119.953 90.2085 116.988C89.7759 117.206 89.2982 117.637 88.8092 118.125C88.6219 117.891 89.2375 117.157 89.5912 116.588C89.363 116.568 89.0572 116.923 88.8535 116.786C87.9408 116.877 89.1932 117.653 87.8658 118.188C86.69 116.864 88.3062 115.068 85.6067 116.713C84.8199 115.772 85.2369 113.649 83.473 114.636C83.2308 114.094 83.552 113.621 84.2557 113.096C82.1487 114.134 82.1276 112.189 80.6423 111.416C81.2174 110.879 81.6939 110.833 82.1212 111.019C83.0871 109.303 80.8624 110.616 81.6715 108.677C82.6277 108.623 83.6156 107.602 83.7648 108.683C84.3771 105.329 80.1186 103.797 78.5953 103.252C79.4747 103.044 79.9619 100.675 78.7179 102.652C78.6547 101.992 79.589 100.709 79.2137 100.245C80.0744 99.0536 80.6395 100.202 80.9391 98.6443C80.335 98.0628 79.5587 100.659 78.5964 99.8443C78.408 100.746 79.0162 101.155 77.7751 102.715C77.5461 102.314 77.1295 102.827 76.7035 103.384C76.5876 101.889 78.8768 102.021 78.1463 100.91C76.8108 102.058 74.8101 101.429 73.9554 100.902C74.9545 103.793 77.9205 102.974 78.7154 106.061C76.5988 108.706 76.3193 106.427 76.3345 105.187C75.7266 104.954 76.0498 106.175 75.0185 107.057C74.9949 106.613 73.607 105.945 73.3774 105.983C73.4192 104.408 74.8807 105.351 75.5143 104.65C75.1555 104.256 74.3211 101.6 71.7349 104.907C72.1083 103.801 72.8512 102.464 72.3539 101.9C72.1514 102.376 71.9439 102.855 72.1054 103.105C70.8322 103.532 72.9302 100.553 74.0793 100.3C72.6067 97.3051 67.42 94.6084 63.5729 91.3792C61.6979 89.8096 59.2396 88.4231 58.0717 86.4192C57.3435 85.1663 53.3967 83.0343 51.0929 81.8549C50.9163 81.5295 51.7477 80.572 52.2025 79.8519C48.9911 81.634 48.8594 77.5309 45.3873 76.7575C45.2021 76.5254 45.8148 75.7924 46.1693 75.2231C45.93 74.7474 44.2738 76.084 45.6773 74.2182C41.6844 75.7692 40.3615 71.7307 38.2456 70.7238C37.9494 70.5792 37.1282 71.3447 37.1782 71.3893C36.7811 71.0379 37.2927 69.2309 36.522 68.9139C35.6179 68.5396 35.4291 68.1439 34.7991 67.1017C34.2297 66.1644 32.9454 64.4346 32.5829 64.2895C32.2983 64.1738 31.6404 65.2787 31.309 64.822C31.0443 64.4512 31.7273 63.5867 31.6738 63.1209C31.49 63.3086 29.7601 62.3553 28.7658 62.4729C30.2758 60.7505 25.5772 60.353 24.4971 58.3183C25.2815 57.4415 25.7578 57.8057 26.0167 56.5823C24.3714 56.5123 22.6853 58.8935 23.2264 55.4386C20.9276 56.7549 21.1193 55.3106 19.4906 54.3594C20.1452 53.4337 20.467 54.1326 21.2152 52.7584C19.6975 54.3318 20.3983 51.6909 18.7942 53.22C18.6665 53.0144 18.9535 52.5638 19.2021 52.3697C16.8184 53.347 15.2382 50.7702 14.1948 49.5318C15.3262 48.4143 15.248 47.7756 15.9217 47.9295C15.7737 46.9393 14.6922 45.5449 16.4571 44.1893C15.7718 44.5308 15.5584 44.3928 15.6374 43.6499C15.1719 44.1954 15.1438 44.4711 15.2457 44.664C13.4619 42.2607 10.6037 39.3025 9.76812 37.0825C8.83774 38.2209 9.38261 37.2256 8.08491 37.3457C8.53534 37.0354 9.04743 36.4353 9.60604 35.6108C9.01872 35.4425 7.92655 37.7448 7.46985 36.9408C9.59159 33.574 5.11152 35.9626 6.19902 34.064C5.90426 33.982 5.42491 34.8045 5.00715 35.3315C4.69554 33.987 4.16303 34.1127 2.54295 33.7211C5.60558 32.8048 2.94926 32.492 1.84462 32.5833C2.45992 31.4744 2.7057 32.1743 3.24305 31.4488C3.51602 30.379 2.97794 29.3119 1.68147 31.1108C2.31337 28.2099 1.11009 27.4809 0.619885 24.9545C2.88324 23.6949 4.76291 24.5006 7.19041 25.8417C7.63982 25.8352 7.52898 25.1906 8.17664 24.4386C11.8635 25.2837 13.7834 28.6366 17.9082 28.0731C15.101 21.9595 8.07221 20.4166 4.36529 15.8001C6.61247 15.4279 7.42616 15.5386 9.57988 16.4818C10.3387 15.0479 8.70822 15.1027 8.92438 14.0069C9.76565 13.3144 10.253 14.3394 11.0187 14.0115C9.29951 10.5914 5.91713 9.64486 2.56336 6.43476C3.56093 4.60359 3.71598 6.87272 4.82503 4.50048C10.825 9.45698 19.1835 7.99792 20.6699 13.5005C19.7758 14.454 19.3913 12.9285 18.7012 12.8917C18.9793 16.0599 21.771 17.0876 23.8708 18.3231C29.7429 21.7737 35.6817 25.0934 41.3605 28.3941C41.6734 27.9356 41.3655 27.8647 41.2773 27.6581C48.477 29.4756 57.5705 35.3271 62.0099 41.2143C62.5526 40.8411 62.8693 41.5655 63.6107 40.2158C63.6693 43.6575 66.6295 43.2566 68.823 44.3102C74.4379 46.997 78.3048 53.6138 83.7671 55.4448C81.5715 57.3473 84.2668 56.0218 85.2032 56.3841C88.9462 57.8404 92.8968 62.9533 96.8609 65.373C97.4277 61.629 91.8652 61.9079 91.4446 57.7358C92.19 56.3714 92.1759 58.7041 92.9228 57.3378C92.1441 51.7704 86.0446 53.7531 85.2517 48.2253C84.6386 48.5071 84.7969 49.0508 83.8525 49.3592C77.7671 46.8453 70.7607 39.8952 64.7255 34.8022C64.011 34.1974 62.4592 35.1636 61.4781 34.7282C53.2332 31.062 50.1588 21.9609 42.3925 18.8333C46.9489 19.7908 48.7697 23.0083 54.1352 25.1478C54.4299 25.2298 54.9087 24.4068 55.3272 23.8774C57.9316 25.6349 57.8196 27.6603 59.8829 28.9049C69.8439 34.9289 80.3799 43.6278 93.0127 47.844C94.0435 47.9751 94.1746 46.2182 95.0685 45.7742C95.6732 49.2551 99.8423 47.994 99.2524 52.6059C100.102 52.549 99.6125 51.1944 99.6235 50.8011C102.594 50.6127 101.49 57.2024 105.287 57.2329C106.103 55.5884 104.879 55.2162 105.289 53.8226C105.474 53.3926 106.685 54.5018 106.397 55.2299C108.583 53.2065 111.109 56.9346 112.473 58.5219C114.389 56.4694 115.972 61.5284 118.509 59.7386C113.737 55.0074 105.579 52.1912 101.559 45.9214C100.921 46.6692 101.096 46.9113 101.309 47.1252C100.251 47.4427 99.7103 46.778 100.532 45.2514C99.7756 44.6402 100.092 46.0114 99.1355 46.3845C98.8434 45.5489 98.8619 45.1902 98.7654 44.7786C95.9928 44.9066 95.1604 41.866 93.8814 40.2191C90.6945 37.1225 94.6992 41.5831 96.6349 39.2896C93.4209 35.2219 86.8621 33.2509 84.2788 29.1629C85.8376 26.7171 85.012 29.6287 86.2086 27.6968C85.2533 25.8188 83.2411 25.7119 82.2293 24.4084C81.4252 26.1349 83.4405 26.1034 81.8965 28.2905C80.0959 27.5295 78.7257 25.5539 77.3833 25.3345C79.8022 21.9753 76.4601 21.3094 74.7127 23.5911C73.4629 23.7572 75.2228 22.0468 74.3454 21.9843C74.0066 21.9294 73.4837 22.7764 73.6867 22.9187C70.5617 21.6527 63.5873 17.7328 61.1667 14.7304C61.1072 14.2428 61.4888 13.479 62.0726 12.5906C61.1911 12.5956 61.1346 14.1774 60.4269 14.9275C59.3365 12.7624 56.8766 13.4773 56.979 11.3103C58.0675 9.42411 58.3684 11.3496 59.0751 11.3133C59.3789 10.1191 58.4103 10.6856 59.9803 9.17597C54.8322 6.46288 53.6317 5.61586 49.5121 2.32942C54.3164 1.06885 55.6288 6.45275 59.777 5.63068C60.6924 8.11565 63.1146 7.49108 64.3755 9.31833C64.9828 9.55359 64.6602 8.33008 65.6915 7.44842C66.7044 7.35005 66.1855 7.71101 66.9225 8.25577C67.948 7.09171 67.1334 7.07408 67.293 6.45033C68.3193 5.35132 67.5613 7.93956 68.8537 6.78782C69.1426 4.16572 65.2432 7.49082 64.6252 4.70609C65.0927 3.72273 64.2408 3.98015 65.4058 3.17067C64.3229 2.62155 64.4326 1.32664 63.067 0.955959C62.1637 0.380114 63.5993 0.127406 63.8082 0.757037C65.9379 1.68889 69.4748 1.5629 69.3473 4.38247C71.2615 3.4412 70.1952 5.56287 71.5246 5.12285C71.2257 5.99843 70.356 7.19476 69.4681 7.19218C71.6029 11.463 76.5758 12.5251 80.2245 14.9067C81.0242 11.1037 76.1411 12.797 76.3275 8.94485C78.5117 8.93763 79.6269 10.4762 81.1718 11.432C79.7129 12.7457 81.6391 13.7107 82.5664 13.7093C83.0132 13.7067 82.9071 13.0568 83.5527 12.3063C84.3449 13.9681 86.0346 13.452 87.658 14.9909C87.4267 15.7479 86.6292 16.8584 86.9572 17.2657C88.7186 13.8726 87.1232 18.8106 88.9286 17.8706C85.1586 20.6294 87.4092 14.6461 84.7009 15.7865C85.6919 19.1807 86.7647 22.1472 90.1565 22.0872C90.9886 20.8697 89.6256 21.0193 91.1884 19.3465C92.7214 20.3552 93.0184 21.5076 94.8822 21.7631C94.372 22.3558 94.0945 21.8147 93.7301 21.6946C93.6662 25.5728 96.7888 27.5019 99.3522 29.4643C100.311 28.8912 100.318 27.9825 100.257 27.3264C101.201 26.1367 101.601 27.5882 102.475 26.7289C103.041 34.0211 112.162 32.5449 112.325 39.994C112.884 39.0705 113.55 39.6199 114.789 38.1955C116.459 39.1035 116.913 41.3637 119.757 40.0802C119.736 43.251 125.345 41.8077 123.078 47.7119C127.526 45.2949 129.01 47.0153 131.702 49.9365C131.181 50.5801 130.972 49.7012 130.427 50.4709C130.842 51.872 132.365 52.5833 133.258 53.688C133.958 52.1151 132.418 51.9388 131.659 51.2757C133.495 48.9494 132.957 51.5453 134.37 51.6807C132.527 56.9571 137.373 56.9709 139.827 57.9824C140.183 56.9747 139.014 56.9151 139.047 56.1095C142.213 55.4544 142.42 59.4214 144.92 59.2651C144.479 59.89 144.042 60.5116 143.604 61.135C146.813 64.8361 150.325 65.7523 154.934 67.1805C155.584 67.2207 155.198 66.2894 156.128 65.9116C160.887 68.7159 165.357 73.1458 171.276 73.772C171.375 73.2074 168.98 73.0465 170.744 70.6947C171.047 71.9419 173.136 73.0732 172.793 75.4487C178.038 78.0493 184.574 80.2124 190.038 83.3154C194.559 85.8784 199.823 87.3071 204.284 89.9008C213.086 95.0162 219.221 101.118 226.492 106.471C228.608 108.029 230.237 109.923 230.347 113.77C226.831 117.684 225.686 115.535 222.747 115.625C222.701 116.791 221.963 118.388 222.744 119.038C222.483 119.285 220.968 120.5 221.428 120.908C217.661 124.846 216.122 121.584 213.173 123.694C212.925 126.589 216.309 125.229 217.975 127.519C218.627 125.801 217.936 124.92 217.03 124.172C219.988 123.565 222.261 126.746 223.024 130.138C220.758 131.7 221.43 128.959 218.959 129.526C217.888 132.013 216.325 131.885 215.258 133.933C215.25 134.987 216.102 135.506 216.652 136.21C215.731 136.544 214.468 138.534 213.653 138.343C212.458 139.963 212.722 140.672 212.5 141.685C212.745 142.173 214.669 139.975 214.35 139.483C216.129 137.841 215.369 142.297 217.061 139.888C216.071 142.155 214.663 141.221 213.65 141.755C213.158 143.286 213.857 144.073 213.853 145.3C212.468 146.231 212.201 144.247 211.595 143.823C211.147 143.827 211.254 144.475 210.609 145.226C211.326 146.951 213.332 149.156 214.342 149.715C212.919 151.804 213.918 149.113 212.862 150.114C212.779 152.658 210.199 156.435 207.391 160.869C205.648 160.966 204.958 161.442 203.862 159.923C203.334 160.193 203.137 160.977 202.134 161.525C201.11 163.817 202.894 165.187 203.898 165.407C201.923 167.11 202.146 169.384 202.374 170.554C201.356 172.114 200.786 171.486 199.908 172.354C196.895 178.196 193.322 177.315 190.251 179.687C185.593 178.124 183.113 172.81 178.47 171.301C177.003 170.823 174.871 171.304 173.46 170.754C170.245 169.509 167.607 167.229 164.509 165.585C155.12 160.594 147.28 154.168 137.045 149.67C133.805 148.246 129.6 146.849 126.205 144.628C120.541 140.925 113.8 138.373 110.649 133.088C110.122 133.358 109.903 134.25 109.045 134.09C109.247 131.177 103.913 134.235 105.845 129.265Z"
    fill="#73CAE4"
    fill-opacity="0.26"
  />
</svg>
