<svg xmlns="http://www.w3.org/2000/svg" width="230" height="182" viewBox="0 0 230 182" fill="none">
  <path fill-rule="evenodd" clip-rule="evenodd" d="M141.461 65.8549C140.373 66.8084 141.449 64.6063 140.313 65.77C140.513 67.2125 139.336 69.4889 140.214 70.5188C140.413 69.1766 140.938 69.2567 141.68 68.0644C140.409 69.6283 140.245 66.8359 141.461 65.8549ZM114.098 56.4487C113.636 56.3023 113.662 57.2897 113.225 57.2383C110.198 55.3124 107.853 51.3834 103.316 51.2864C101.908 47.9779 98.3925 47.2243 95.9095 45.6325C94.1127 44.4814 92.9578 41.7485 89.6091 43.473C92.8705 46.1636 97.0176 47.8379 99.258 50.6279C103.433 51.8651 107.387 55.5677 112.426 58.7667C112.502 59.242 111.171 60.5722 111.498 60.8947C112.312 60.0119 113.027 59.5764 113.647 59.5875C120.129 64.8002 125.877 68.6244 130.091 71.9863C130.156 72.4918 128.677 75.2433 130.107 74.059C130.024 73.8033 130.12 72.2057 130.703 72.3963C132.664 75.1616 141.553 78.6008 143.015 83.4008C142.856 83.1488 143.068 82.6724 143.276 82.1983C146.545 84.9035 150.858 85.3916 152.313 88.9432C150.429 84.8556 148.519 79.9195 143.668 80.3983C144.002 79.9341 144.336 79.4703 144.67 79.0091C142.124 80.5836 142.698 75.7251 141.673 75.6208C136.544 78.3822 138.146 72.5586 134.949 71.1165C132.604 73.3466 131.043 70.3717 130.745 68.9843C125.562 65.8843 119.126 61.8534 114.098 56.4487ZM155.133 86.7078C155.534 87.7809 154.314 87.959 153.593 88.4257C153.324 89.79 154.568 90.1884 155.834 89.9287C154.133 89.9966 156.72 86.8989 155.817 87.8555C155.475 87.6374 154.775 89.0644 154.407 88.9745C154.973 88.1553 155.491 87.5636 155.949 87.2551C155.024 87.5816 156.043 85.547 155.133 86.7078ZM157.635 87.0111C155.58 91.9662 160.743 91.3195 161.276 94.9548C162.076 94.1331 162.711 94.0811 163.295 94.2466C164.027 95.1019 165.385 97.7681 167.298 96.2401C166.535 95.8352 167.245 94.5362 166.874 93.8953C165.669 95.1028 163.712 94.1855 163.763 93.1811C165.147 91.393 164.144 93.9475 165.244 92.8018C163.639 92.0093 158.879 91.463 157.635 87.0111ZM167.371 96.9789C168.726 97.2421 168.629 100.41 170.761 98.5619C169.43 98.6853 168.755 95.7402 167.371 96.9789ZM148.442 86.3493C147.87 86.0156 146.697 86.7543 146.493 87.7947C146.93 88.2946 147.625 87.6021 148.442 86.3493ZM153.476 91.1033C152.943 91.7704 152.315 92.8628 151.935 92.8207C151.347 91.8765 149.537 90.3672 148.344 91.0962C154.226 97.0594 161.498 101.723 165.006 105.707C164.774 105.703 164.595 105.45 164.264 105.898C164.669 106.895 165.626 105.361 166.286 105.189C167.555 108.201 171.346 109.23 172.569 111.582C172.363 112.036 172.675 112.173 172.893 112.368C172.829 112.082 172.699 111.833 172.569 111.582C172.635 111.438 172.753 111.259 172.952 111.033C174.744 112.948 176.213 111.591 175.95 114.419C177.184 112.671 177.477 115.266 178.71 113.521C172.414 107.06 160.801 100.601 154.177 94.3217C154.713 92.8303 155.721 94.027 155.384 93.0655C154.321 94.0459 155.297 91.6023 154.031 92.8476C153.745 95.7591 153.127 92.8526 153.476 91.1033ZM203.55 128.106C204.544 126.469 203.197 126.734 202.327 127.286C202.892 127.899 202.262 129.235 203.491 129.445C204.146 128.7 204.045 128.052 204.493 128.053C205.441 128.172 203.395 130.109 204.51 130.126C205.083 129.277 205.495 129.176 205.791 129.606C207.526 126.965 205.435 126.053 203.55 128.106ZM210.476 132.749C210.488 131.137 208.634 129.631 207.274 129.228C206.103 134.107 211.12 131.266 210.361 135.422C210.864 134.897 211.307 134.651 211.64 134.907C213.489 132.27 211.677 132.298 210.476 132.749ZM200.597 130.944C201.624 130.84 200.568 132.004 200.746 132.415C201.412 131.497 201.725 132.199 202.489 130.833C201.896 130.08 201.983 129.627 200.597 130.944ZM182.73 117.588C187.348 120.795 190.384 125.428 195.971 126.462C192.113 123.5 188.567 119.842 182.73 117.588ZM178.549 109.972C178.654 110.082 178.74 110.204 178.419 110.573C178.088 110.31 177.64 110.579 177.14 111.089C177.637 112.02 178.58 110.904 179.363 110.519C178.665 110.707 179.684 108.675 178.549 109.972ZM180.431 117.422C181.493 116.118 181.892 117.854 182.859 116.986C182.543 116.572 182.987 115.695 183.048 115.049C180.209 116.382 181.513 112.944 178.582 114.118C178.347 116.193 182.621 115.436 180.431 117.422ZM155.129 103.897C155.34 104.321 154.656 104.467 154.127 105.289C155.772 104.602 153.494 107.146 155.015 106.572C154.777 106.029 155.105 105.56 155.815 105.044C155.623 104.776 155.786 103.03 155.129 103.897ZM191.583 135.902C190.935 136.381 190.148 137.496 189.637 137.346C191.205 135.02 188.526 134.755 187.874 136.855C189.271 135.593 190.067 140.165 193.171 140.405C194.345 136.943 192.462 137.435 191.583 135.902ZM201.727 146.142C202.528 146.324 202.546 149.255 203.764 147.507C203.79 146.821 203.301 144.177 201.727 146.142ZM206.487 150.019C206.245 151.032 207.232 151.147 208.042 150.376C207.769 149.71 207.534 149.358 206.487 150.019ZM207.914 150.973C207.647 152.272 209.033 153.928 210.43 153.351C209.485 152.272 209.409 150.454 207.914 150.973ZM86.7351 73.8665C87.576 75.5337 88.4095 76.6611 89.9948 76.051C89.9303 74.867 87.9094 73.5104 86.7351 73.8665ZM90.606 76.4603C90.9137 76.8186 91.0928 78.562 92.2348 77.5533C92.3754 76.9241 91.4717 75.6183 90.606 76.4603ZM72.9552 65.3177C72.1753 63.8251 70.0953 63.6653 68.75 63.1846C69.6963 64.2736 70.5756 65.3311 72.9552 65.3177ZM80.2892 70.2334C82.2731 71.4005 84.1872 73.6857 86.661 73.1301C83.6925 71.8883 83.1808 69.7212 80.2892 70.2334ZM172.189 126.34C171.892 125.976 171.432 123.602 170.023 125.572C171.27 125.783 170.708 127.647 172.189 126.34ZM187.134 137.045C188.248 135.662 187.513 134.5 186.449 135.9C186.14 137.199 187.401 135.933 187.134 137.045ZM202.193 145.075C199.264 145.035 198.845 140.747 195.209 141.771C197.735 142.94 198.198 146.48 202.193 145.075ZM181.153 132.347C183.258 133.11 183.87 136.945 186.916 134.833C184.623 134.458 184.34 129.704 181.153 132.347ZM130.491 106.639C130.696 107.99 132.242 108.527 131.802 110.269C130.602 108.713 127.836 105.86 125.969 107.046C129.281 110.281 133.358 111.441 135.762 115.673C135.549 116.064 135.109 116.592 135.299 116.737C135.743 116.12 136.19 115.5 136.636 114.881C136.745 115.998 138.465 117.518 139.82 116.332C139.341 113.129 136.597 111.195 134.639 110.106C134.544 110.4 135.135 111.455 134.378 111.308C133.659 109.571 132.166 106.927 130.491 106.639ZM144.361 117.999C143.21 118.547 144.034 116.729 142.804 117.641C143.016 117.977 142.224 120.21 143.155 119.25C143.067 119.044 143.196 118.705 143.617 118.189C143.879 118.417 144.471 118.609 144.361 117.999ZM144.768 118.271C144.322 118.889 143.877 119.507 143.431 120.125C146.46 124.013 149.331 124.646 153.149 128.019C152.354 121.597 146.596 123.717 144.768 118.271ZM153.966 128.564C154.251 129.94 158.731 130.16 156.762 131.811C156.552 132.438 159.511 131.49 159.395 131.514C158.084 130.236 155.817 127.154 153.966 128.564ZM160.616 132.335C160.165 132.976 159.786 133.286 159.409 133.589C159.592 134.169 159.128 135.771 160.428 134.27C160.112 133.856 160.555 132.978 160.616 132.335ZM124.035 110.563C124.576 112.232 126.962 112.778 126.033 115.339C125.7 115.077 125.252 115.348 124.754 115.855C126.701 114.78 123.815 118.143 125.437 117.002C126.51 115.65 128.741 119.039 129.902 117.934C129.58 114.248 127.52 110.579 124.035 110.563ZM115.641 108.375C115.665 112.721 117.699 108.251 119.79 111.843C120.409 109.45 116.586 108.843 119.818 106.357C117.017 108.288 116.07 101.73 113.372 102.724C113.137 103.907 114.249 104.272 113.125 105.997C113.296 105.316 112.308 105.201 111.567 105.645C113.245 106.272 113.57 109.38 115.641 108.375ZM111.698 105.044C111.078 105.035 110.774 103.573 109.938 104.551C110.502 105.266 110.408 106.201 111.698 105.044ZM26.9747 59.9397C23.736 58.7213 24.2419 57.1933 21.0107 57.3151C21.8245 58.8089 24.2184 62.1365 26.9747 59.9397ZM10.5638 51.6867C11.1641 52.2771 12.4742 52.4338 12.2675 53.5165C12.9904 51.5128 12.0268 50.6564 10.5638 51.6867ZM103.605 115.433C105.815 116.402 105.567 119.513 107.809 117.565C106.478 118.138 105.509 113.663 103.605 115.433ZM121.693 130.997C121.359 131.461 121.023 131.926 120.69 132.388C120.7 133.175 122.456 133.281 121.723 135.147C124.008 132.389 124.163 136.934 126.264 136.811C126.73 133.208 122.908 133.582 121.693 130.997ZM127.746 136.433C127.14 140.583 131.777 138.987 130.906 143.366C127.321 141.424 125.509 137.389 120.648 135.8C120.7 136.464 121.55 136.641 121.202 137.546C118.789 137.505 119.006 135.541 119.076 133.37C118.317 134.712 118.009 133.985 117.463 134.352C117.659 132.901 117.799 130.66 115.89 131.921C119.914 141.616 133.66 150.509 140.18 154.394C136.947 150.083 132.971 149.88 131.127 145.574C133.974 144.317 133.021 150.109 136.888 148.061C135.39 147.785 134.66 145.121 133.484 144.401C132.661 145.824 131.559 142.716 133.932 141.266C131.983 139.947 129.041 138.158 127.746 136.433ZM138.591 149.891C140.086 152.59 141.783 152.672 143.887 153.443C142.163 151.156 141.254 148.621 138.591 149.891ZM156.053 162.974C156.641 163.136 157.274 163.086 158.074 162.266C157.493 161.737 157.045 159.782 155.63 160.626C155.492 161.803 156.959 162.005 156.591 162.644C156.45 162.588 156.301 162.553 156.053 162.974ZM159.632 162.62C157.806 164.975 158.589 162.322 157.944 162.865C158.175 163.199 157.353 163.976 156.941 164.256C159.245 164.117 158.385 166.492 161.538 164.586C161.565 165.872 163.531 165.978 162.442 167.944C163.446 167.248 162.848 167.341 163.777 166.09C162.447 165.683 162.491 164.439 162.004 163.521C160.284 166.024 160.1 163.192 159.632 162.62ZM165.073 167.645C166.768 168.049 165.772 170.286 167.056 170.347C166.758 169.311 168.106 167.278 167.431 166.47C166.239 169.291 166.774 166.196 165.073 167.645ZM112.719 132.548C112.47 127.671 108.049 126.676 105.633 124.356C106.011 124.802 105.208 125.908 104.498 126.351C107.153 128.928 109.561 131.82 112.719 132.548ZM150.945 157.486C150.509 157.35 150.974 154.966 150.465 156.473C150.57 156.585 150.655 156.707 150.334 157.077C149.488 156.808 149.323 156.127 149.038 155.519C147.777 157.167 150.257 157.886 150.945 157.486ZM144.871 167.167C144.539 168.677 146.055 167.169 146.632 167.66C146.446 167.917 146.418 168.295 146.835 167.797C147.12 166.113 146.136 166.656 144.871 167.167ZM125.28 52.2551C126.773 51.2997 125.917 51.8243 127.228 50.8092C131.848 55.7235 134.965 57.6945 139.54 61.8138C139.229 62.165 139.003 62.1377 138.668 62.6038C139.413 62.7071 141.782 61.7557 140.776 64.7097C141.211 64.497 141.694 64.071 142.188 63.5888C142.373 63.8245 141.749 64.5514 141.389 65.1172C141.617 65.1396 141.927 64.7878 142.129 64.9271C143.043 64.8465 141.799 64.0565 143.133 63.5364C144.293 64.874 142.657 66.6512 145.375 65.0374C146.151 65.9868 145.71 68.1054 147.485 67.1383C147.721 67.6833 147.394 68.1527 146.684 68.6692C148.803 67.6556 148.802 69.6005 150.278 70.3899C149.697 70.9207 149.22 70.9611 148.795 70.7706C147.81 72.4757 150.049 71.1875 149.218 73.1178C148.261 73.1609 147.262 74.1706 147.125 73.0871C146.475 76.4342 150.715 78.0147 152.232 78.5769C151.351 78.7753 150.837 81.1387 152.103 79.176C152.159 79.8368 151.21 81.1081 151.58 81.577C150.706 82.7583 150.154 81.604 149.836 83.1578C150.434 83.7461 151.24 81.1594 152.192 81.9845C152.391 81.0848 151.788 80.6692 153.046 79.1231C153.271 79.5267 153.693 79.0184 154.126 78.467C154.224 79.9626 151.937 79.8044 152.655 80.9237C154.003 79.7917 155.997 80.4432 156.845 80.9793C155.879 78.0777 152.904 78.8624 152.144 75.7665C154.291 73.1465 154.544 75.4286 154.515 76.6679C155.12 76.9076 154.811 75.6829 155.852 74.8131C155.871 75.2577 157.251 75.9412 157.481 75.906C157.421 77.4803 155.971 76.5208 155.329 77.2141C155.683 77.6125 156.487 80.2773 159.111 77C158.725 78.102 157.967 79.4303 158.458 79.9995C158.666 79.5259 158.879 79.0501 158.72 78.7981C159.998 78.385 157.866 81.3406 156.714 81.5803C158.153 84.5917 163.309 87.3473 167.119 90.6201C168.976 92.2109 171.418 93.6253 172.563 95.6423C173.277 96.9034 177.199 99.0803 179.489 100.286C179.662 100.613 178.82 101.561 178.357 102.276C181.589 100.531 181.674 104.635 185.137 105.448C185.319 105.682 184.698 106.408 184.337 106.973C184.571 107.452 186.242 106.134 184.818 107.984C188.828 106.478 190.105 110.532 192.209 111.562C192.504 111.71 193.334 110.954 193.284 110.909C193.677 111.265 193.145 113.066 193.912 113.392C194.812 113.776 194.996 114.174 195.614 115.224C196.173 116.167 197.437 117.911 197.798 118.061C198.082 118.18 198.752 117.082 199.078 117.543C199.339 117.917 198.646 118.773 198.694 119.24C198.88 119.054 200.599 120.027 201.594 119.921C200.065 121.626 204.759 122.077 205.816 124.124C205.021 124.991 204.549 124.622 204.276 125.842C205.921 125.931 207.634 123.569 207.053 127.018C209.367 125.728 209.159 127.17 210.777 128.139C210.112 129.057 209.798 128.355 209.034 129.72C210.57 128.164 209.839 130.797 211.46 129.286C211.585 129.493 211.293 129.941 211.043 130.132C213.437 129.182 214.988 131.777 216.017 133.027C214.873 134.131 214.944 134.771 214.272 134.609C214.409 135.601 215.475 137.008 213.694 138.343C214.383 138.01 214.595 138.15 214.508 138.892C214.98 138.352 215.011 138.076 214.911 137.882C216.667 140.306 219.492 143.296 220.302 145.526C221.245 144.398 220.689 145.387 221.988 145.282C221.534 145.587 221.015 146.181 220.447 146.999C221.033 147.174 222.151 144.884 222.598 145.694C220.439 149.036 224.945 146.699 223.836 148.585C224.13 148.67 224.619 147.853 225.043 147.331C225.339 148.679 225.873 148.559 227.488 148.969C224.416 149.85 227.068 150.193 228.174 150.115C227.546 151.217 227.308 150.514 226.762 151.233C226.477 152.3 227.003 153.373 228.32 151.589C227.655 154.483 228.85 155.225 229.312 157.757C227.034 158.991 225.164 158.164 222.752 156.795C222.302 156.797 222.406 157.442 221.749 158.187C218.072 157.3 216.191 153.925 212.06 154.442C214.797 160.587 221.808 162.21 225.462 166.868C223.211 167.215 222.399 167.095 220.256 166.127C219.481 167.552 221.112 167.516 220.883 168.609C220.034 169.292 219.558 168.262 218.789 168.581C220.469 172.02 223.84 173.005 227.157 176.253C226.139 178.073 226.01 175.802 224.874 178.162C218.931 173.137 210.556 174.501 209.132 168.982C210.037 168.039 210.404 169.569 211.094 169.613C210.852 166.442 208.072 165.383 205.987 164.123C200.154 160.606 194.254 157.219 188.613 153.854C188.295 154.309 188.602 154.383 188.687 154.591C181.509 152.691 172.483 146.737 168.111 140.8C167.564 141.167 167.255 140.439 166.499 141.78C166.479 138.338 163.514 138.705 161.333 137.626C155.749 134.876 151.958 128.215 146.517 126.322C148.734 124.445 146.024 125.74 145.091 125.367C141.365 123.868 137.473 118.71 133.537 116.246C132.927 119.983 138.493 119.767 138.866 123.944C138.105 125.3 138.146 122.967 137.383 124.325C138.098 129.901 144.22 127.988 144.95 133.524C145.566 133.25 145.414 132.704 146.362 132.406C152.419 134.989 159.345 142.019 165.322 147.18C166.03 147.793 167.592 146.845 168.569 147.291C176.771 151.051 179.742 160.187 187.472 163.402C182.927 162.393 181.143 159.155 175.802 156.955C175.508 156.869 175.02 157.687 174.595 158.211C172.011 156.424 172.146 154.4 170.097 153.132C160.205 146.995 149.769 138.177 137.185 133.817C136.156 133.674 136.005 135.43 135.106 135.864C134.541 132.376 130.358 133.59 131 128.985C130.15 129.032 130.624 130.392 130.609 130.785C127.636 130.94 128.815 124.363 125.019 124.289C124.183 125.924 125.404 126.311 124.978 127.699C124.788 128.127 123.59 127.004 123.886 126.28C121.677 128.278 119.194 124.521 117.848 122.919C115.909 124.949 114.384 119.872 111.826 121.633C116.544 126.418 124.669 129.327 128.618 135.643C129.264 134.902 129.092 134.658 128.881 134.442C129.943 134.136 130.476 134.807 129.637 136.324C130.386 136.944 130.086 135.569 131.046 135.207C131.329 136.046 131.306 136.404 131.398 136.817C134.172 136.721 134.97 139.771 136.23 141.432C139.381 144.565 135.428 140.059 133.466 142.33C136.633 146.434 143.169 148.48 145.706 152.597C144.119 155.025 144.978 152.123 143.76 154.041C144.693 155.929 146.704 156.059 147.701 157.374C148.525 155.657 146.509 155.666 148.078 153.496C149.87 154.278 151.218 156.269 152.557 156.503C150.1 159.835 153.435 160.539 155.208 158.277C156.46 158.125 154.68 159.815 155.557 159.888C155.895 159.947 156.428 159.106 156.226 158.961C159.337 160.263 166.266 164.262 168.652 167.291C168.706 167.78 168.316 168.539 167.722 169.421C168.604 169.426 168.678 167.845 169.394 167.103C170.46 169.28 172.928 168.593 172.801 170.759C171.691 172.633 171.412 170.704 170.705 170.732C170.387 171.923 171.362 171.367 169.775 172.859C174.892 175.63 176.083 176.491 180.165 179.824C175.347 181.03 174.096 175.631 169.938 176.406C169.051 173.911 166.622 174.508 165.382 172.666C164.778 172.424 165.086 173.651 164.045 174.521C163.031 174.608 163.554 174.253 162.823 173.7C161.784 174.852 162.599 174.879 162.432 175.501C161.393 176.588 162.181 174.009 160.875 175.146C160.557 177.765 164.494 174.484 165.08 177.276C164.601 178.254 165.456 178.006 164.282 178.802C165.358 179.363 165.234 180.657 166.595 181.043C167.492 181.629 166.054 181.866 165.852 181.234C163.733 180.278 160.195 180.363 160.354 177.545C158.43 178.465 159.52 176.355 158.186 176.78C158.494 175.908 159.378 174.722 160.266 174.735C158.18 170.44 153.219 169.321 149.598 166.898C148.755 170.692 153.657 169.054 153.427 172.904C151.242 172.886 150.145 171.335 148.611 170.362C150.085 169.065 148.17 168.078 147.242 168.069C146.796 168.066 146.894 168.717 146.24 169.46C145.467 167.79 143.771 168.287 142.166 166.729C142.406 165.975 143.216 164.874 142.892 164.463C141.092 167.835 142.744 162.916 140.928 163.835C144.729 161.12 142.411 167.077 145.132 165.967C144.179 162.562 143.14 159.584 139.748 159.605C138.902 160.813 140.267 160.679 138.685 162.334C137.164 161.308 136.88 160.152 135.019 159.875C135.536 159.288 135.807 159.833 136.17 159.957C136.278 156.08 133.178 154.115 130.637 152.124C129.671 152.686 129.654 153.594 129.708 154.251C128.75 155.43 128.367 153.974 127.483 154.823C127 147.525 117.863 148.898 117.785 141.447C117.215 142.364 116.556 141.807 115.301 143.217C113.641 142.29 113.213 140.025 110.354 141.276C110.412 138.106 104.786 139.485 107.121 133.607C102.645 135.973 101.181 134.236 98.5222 131.285C99.0502 130.647 99.2495 131.528 99.8034 130.765C99.404 129.359 97.8896 128.63 97.0088 127.516C96.2913 129.08 97.8294 129.274 98.5809 129.946C96.7181 132.251 97.2861 129.662 95.8744 129.51C97.7772 124.255 92.9318 124.186 90.4895 123.147C90.1223 124.15 91.2897 124.223 91.2482 125.028C88.0752 125.647 87.9129 121.678 85.4114 121.806C85.8591 121.186 86.3032 120.57 86.7486 119.951C83.5819 116.214 80.0804 115.258 75.4884 113.777C74.839 113.73 75.2135 114.665 74.2799 115.032C69.5524 112.174 65.1338 107.694 59.2222 107C59.1168 107.564 61.5095 107.752 59.7187 110.083C59.4305 108.833 57.3542 107.678 57.7242 105.306C52.5096 102.646 45.9979 100.409 40.5698 97.2439C36.0786 94.6295 30.8309 93.141 26.3996 90.4967C17.6571 85.2814 11.5915 79.1102 4.38205 73.6746C2.28372 72.093 0.6766 70.1804 0.61047 66.332C4.17017 62.4591 5.29081 64.6207 8.23134 64.5636C8.28974 63.3987 9.04669 61.8097 8.27265 61.1511C8.53682 60.9076 10.0651 59.7095 9.60986 59.2963C13.4215 55.4012 14.9232 58.6806 17.8965 56.6043C18.1773 53.7128 14.7777 55.0339 13.1381 52.7254C12.4661 54.4357 13.1474 55.3246 14.0444 56.0822C11.0802 56.6563 8.84329 53.4495 8.11894 50.0489C10.4024 48.5124 9.69991 51.2456 12.1766 50.7069C13.2761 48.2322 14.8374 48.3781 15.9279 46.3426C15.9477 45.2883 15.1013 44.7597 14.5593 44.0496C15.4846 43.7266 16.77 41.7512 17.5826 41.951C18.7961 40.3451 18.5406 39.6324 18.7737 38.6221C18.5349 38.1312 16.5851 40.3078 16.8987 40.8033C15.1016 42.4245 15.9115 37.9777 14.1922 40.3675C15.2082 38.112 16.6052 39.0617 17.6246 38.539C18.134 37.0137 17.4444 36.2191 17.4624 34.9922C18.8572 34.0772 19.1025 36.0639 19.7032 36.4951C20.1513 36.4957 20.0519 35.8472 20.7053 35.1035C20.0075 33.3699 18.0265 31.142 17.0233 30.5724C18.4701 28.4997 17.4401 31.1789 18.508 30.1898C18.6194 27.6466 21.243 23.8997 24.1009 19.4978C25.8452 19.4206 26.5401 18.9525 27.6193 20.4842C28.1494 20.2201 28.3554 19.4379 29.3649 18.902C30.4155 16.6217 28.6463 15.2311 27.6452 14.9996C29.6397 13.3193 29.442 11.0426 29.2279 9.87011C30.263 8.32246 30.8266 8.9569 31.7142 8.09836C34.7937 2.2911 38.3564 3.21249 41.4541 0.875962C46.0937 2.4918 48.5135 7.83426 53.1388 9.39538C54.5999 9.89007 56.7379 9.43407 58.1426 9.9997C61.3427 11.2813 63.9548 13.5906 67.0336 15.2704C76.3651 20.3681 84.132 26.8824 94.3151 31.4967C97.5381 32.9575 101.727 34.4026 105.096 36.6614C110.718 40.4289 117.43 43.0578 120.52 48.3782C121.051 48.1141 121.28 47.2249 122.136 47.3946C121.901 50.305 127.269 47.3081 125.28 52.2551Z" fill="#73CAE4" fill-opacity="0.26"/>
</svg>